<svg width="686" height="46" viewBox="0 0 686 46" fill="none" xmlns="http://www.w3.org/2000/svg">
<path d="M37.023 11.816H39.871C40.2976 11.816 40.671 11.88 40.991 12.008C41.311 12.136 41.5563 12.3333 41.727 12.6C41.9083 12.856 41.999 13.1813 41.999 13.576C41.999 13.9707 41.9083 14.3013 41.727 14.568C41.5563 14.824 41.311 15.016 40.991 15.144C40.671 15.272 40.2976 15.336 39.871 15.336H37.023V17H40.111C40.8363 17 41.4816 16.8613 42.047 16.584C42.623 16.296 43.0763 15.896 43.407 15.384C43.7483 14.8613 43.919 14.2587 43.919 13.576C43.919 12.8827 43.7483 12.2853 43.407 11.784C43.0763 11.272 42.623 10.8773 42.047 10.6C41.4816 10.3227 40.8363 10.184 40.111 10.184H37.023V11.816ZM36.271 5.8V17H38.191V7.464H43.071V5.8H36.271ZM45.0975 13.32C45.0975 14.0667 45.2681 14.7333 45.6095 15.32C45.9615 15.896 46.4361 16.3493 47.0335 16.68C47.6415 17 48.3188 17.16 49.0655 17.16C49.8228 17.16 50.5001 17 51.0975 16.68C51.6948 16.3493 52.1641 15.896 52.5055 15.32C52.8575 14.7333 53.0335 14.0667 53.0335 13.32C53.0335 12.5627 52.8575 11.896 52.5055 11.32C52.1641 10.744 51.6948 10.296 51.0975 9.976C50.5001 9.64533 49.8228 9.48 49.0655 9.48C48.3188 9.48 47.6415 9.64533 47.0335 9.976C46.4361 10.296 45.9615 10.744 45.6095 11.32C45.2681 11.896 45.0975 12.5627 45.0975 13.32ZM46.8735 13.32C46.8735 12.8613 46.9695 12.456 47.1615 12.104C47.3535 11.752 47.6148 11.48 47.9455 11.288C48.2761 11.096 48.6495 11 49.0655 11C49.4815 11 49.8548 11.096 50.1855 11.288C50.5161 11.48 50.7775 11.752 50.9695 12.104C51.1615 12.456 51.2575 12.8613 51.2575 13.32C51.2575 13.7787 51.1615 14.184 50.9695 14.536C50.7775 14.8773 50.5161 15.1493 50.1855 15.352C49.8548 15.544 49.4815 15.64 49.0655 15.64C48.6495 15.64 48.2761 15.544 47.9455 15.352C47.6148 15.1493 47.3535 14.8773 47.1615 14.536C46.9695 14.184 46.8735 13.7787 46.8735 13.32ZM61.6487 9.64H54.9127V14.2C54.9127 14.68 54.7954 15.0053 54.5607 15.176C54.3367 15.3467 54.0647 15.432 53.7447 15.432V17C54.4381 17 54.9927 16.9093 55.4087 16.728C55.8354 16.536 56.1394 16.2533 56.3207 15.88C56.5127 15.496 56.6087 15.016 56.6087 14.44V11.24H59.9527V17H61.6487V9.64ZM64.0645 9.64V17H65.8085V9.64H64.0645ZM65.2805 13.608H67.3925C67.7871 13.608 68.0805 13.6933 68.2725 13.864C68.4751 14.0347 68.5765 14.28 68.5765 14.6C68.5765 14.8027 68.5285 14.9787 68.4325 15.128C68.3471 15.2773 68.2138 15.3893 68.0325 15.464C67.8618 15.5387 67.6485 15.576 67.3925 15.576H65.2805V17H67.5685C68.0805 17 68.5391 16.9093 68.9445 16.728C69.3498 16.5467 69.6698 16.2747 69.9045 15.912C70.1391 15.5493 70.2565 15.1067 70.2565 14.584C70.2565 13.7947 69.9951 13.2187 69.4725 12.856C68.9605 12.4827 68.3258 12.296 67.5685 12.296H65.2805V13.608ZM78.3335 15.48V9.64H76.6215V15.48H73.8535V9.64H72.1575V17H82.7975V9.64H81.1015V15.48H78.3335ZM85.4812 13.72H91.9452C91.9559 13.624 91.9612 13.5387 91.9612 13.464C91.9612 13.3787 91.9612 13.304 91.9612 13.24C91.9612 12.4613 91.8119 11.7947 91.5132 11.24C91.2252 10.6747 90.8039 10.2427 90.2492 9.944C89.7052 9.63467 89.0492 9.48 88.2812 9.48C87.5879 9.48 86.9746 9.608 86.4412 9.864C85.9079 10.12 85.4759 10.4773 85.1452 10.936C84.8252 11.3947 84.6119 11.928 84.5052 12.536C84.4839 12.664 84.4679 12.792 84.4572 12.92C84.4466 13.048 84.4412 13.1813 84.4412 13.32C84.4412 14.056 84.5959 14.7173 84.9052 15.304C85.2146 15.88 85.6519 16.3333 86.2172 16.664C86.7932 16.9947 87.4546 17.16 88.2012 17.16C88.8732 17.16 89.4332 17.08 89.8812 16.92C90.3399 16.7493 90.7292 16.5147 91.0492 16.216C91.3692 15.9173 91.6519 15.5653 91.8972 15.16L90.3932 14.568C90.2546 14.8027 90.0839 15.0107 89.8812 15.192C89.6786 15.3627 89.4439 15.496 89.1772 15.592C88.9212 15.688 88.6226 15.736 88.2812 15.736C87.8759 15.736 87.5132 15.6507 87.1932 15.48C86.8839 15.2987 86.6386 15.0267 86.4572 14.664C86.2866 14.3013 86.2012 13.8533 86.2012 13.32L86.2332 12.872C86.2332 12.4453 86.3186 12.0773 86.4892 11.768C86.6706 11.448 86.9159 11.208 87.2252 11.048C87.5346 10.8773 87.8812 10.792 88.2652 10.792C88.6386 10.792 88.9532 10.8667 89.2092 11.016C89.4652 11.1547 89.6626 11.3573 89.8012 11.624C89.9506 11.88 90.0466 12.1787 90.0892 12.52H85.4812V13.72ZM98.5191 8.424L101.127 7.704V17H102.983V5.624L98.5191 6.632V8.424ZM107.393 11.4C107.393 10.8027 107.452 10.2533 107.569 9.752C107.687 9.25067 107.852 8.81867 108.065 8.456C108.289 8.09333 108.556 7.816 108.865 7.624C109.175 7.42133 109.521 7.32 109.905 7.32C110.289 7.32 110.631 7.42133 110.929 7.624C111.239 7.816 111.5 8.09333 111.713 8.456C111.937 8.81867 112.108 9.25067 112.225 9.752C112.343 10.2533 112.401 10.8027 112.401 11.4C112.401 11.9973 112.343 12.5467 112.225 13.048C112.108 13.5493 111.937 13.9813 111.713 14.344C111.5 14.7067 111.239 14.9893 110.929 15.192C110.631 15.384 110.289 15.48 109.905 15.48C109.521 15.48 109.175 15.384 108.865 15.192C108.556 14.9893 108.289 14.7067 108.065 14.344C107.852 13.9813 107.687 13.5493 107.569 13.048C107.452 12.5467 107.393 11.9973 107.393 11.4ZM105.537 11.4C105.537 12.5627 105.719 13.576 106.081 14.44C106.455 15.304 106.967 15.976 107.617 16.456C108.279 16.936 109.041 17.176 109.905 17.176C110.78 17.176 111.543 16.936 112.193 16.456C112.844 15.976 113.351 15.304 113.713 14.44C114.076 13.576 114.257 12.5627 114.257 11.4C114.257 10.2373 114.076 9.224 113.713 8.36C113.351 7.496 112.844 6.824 112.193 6.344C111.543 5.864 110.78 5.624 109.905 5.624C109.041 5.624 108.279 5.864 107.617 6.344C106.967 6.824 106.455 7.496 106.081 8.36C105.719 9.224 105.537 10.2373 105.537 11.4ZM117.393 11.4C117.393 10.8027 117.452 10.2533 117.569 9.752C117.687 9.25067 117.852 8.81867 118.065 8.456C118.289 8.09333 118.556 7.816 118.865 7.624C119.175 7.42133 119.521 7.32 119.905 7.32C120.289 7.32 120.631 7.42133 120.929 7.624C121.239 7.816 121.5 8.09333 121.713 8.456C121.937 8.81867 122.108 9.25067 122.225 9.752C122.343 10.2533 122.401 10.8027 122.401 11.4C122.401 11.9973 122.343 12.5467 122.225 13.048C122.108 13.5493 121.937 13.9813 121.713 14.344C121.5 14.7067 121.239 14.9893 120.929 15.192C120.631 15.384 120.289 15.48 119.905 15.48C119.521 15.48 119.175 15.384 118.865 15.192C118.556 14.9893 118.289 14.7067 118.065 14.344C117.852 13.9813 117.687 13.5493 117.569 13.048C117.452 12.5467 117.393 11.9973 117.393 11.4ZM115.537 11.4C115.537 12.5627 115.719 13.576 116.081 14.44C116.455 15.304 116.967 15.976 117.617 16.456C118.279 16.936 119.041 17.176 119.905 17.176C120.78 17.176 121.543 16.936 122.193 16.456C122.844 15.976 123.351 15.304 123.713 14.44C124.076 13.576 124.257 12.5627 124.257 11.4C124.257 10.2373 124.076 9.224 123.713 8.36C123.351 7.496 122.844 6.824 122.193 6.344C121.543 5.864 120.78 5.624 119.905 5.624C119.041 5.624 118.279 5.864 117.617 6.344C116.967 6.824 116.455 7.496 116.081 8.36C115.719 9.224 115.537 10.2373 115.537 11.4ZM127.393 11.4C127.393 10.8027 127.452 10.2533 127.569 9.752C127.687 9.25067 127.852 8.81867 128.065 8.456C128.289 8.09333 128.556 7.816 128.865 7.624C129.175 7.42133 129.521 7.32 129.905 7.32C130.289 7.32 130.631 7.42133 130.929 7.624C131.239 7.816 131.5 8.09333 131.713 8.456C131.937 8.81867 132.108 9.25067 132.225 9.752C132.343 10.2533 132.401 10.8027 132.401 11.4C132.401 11.9973 132.343 12.5467 132.225 13.048C132.108 13.5493 131.937 13.9813 131.713 14.344C131.5 14.7067 131.239 14.9893 130.929 15.192C130.631 15.384 130.289 15.48 129.905 15.48C129.521 15.48 129.175 15.384 128.865 15.192C128.556 14.9893 128.289 14.7067 128.065 14.344C127.852 13.9813 127.687 13.5493 127.569 13.048C127.452 12.5467 127.393 11.9973 127.393 11.4ZM125.537 11.4C125.537 12.5627 125.719 13.576 126.081 14.44C126.455 15.304 126.967 15.976 127.617 16.456C128.279 16.936 129.041 17.176 129.905 17.176C130.78 17.176 131.543 16.936 132.193 16.456C132.844 15.976 133.351 15.304 133.713 14.44C134.076 13.576 134.257 12.5627 134.257 11.4C134.257 10.2373 134.076 9.224 133.713 8.36C133.351 7.496 132.844 6.824 132.193 6.344C131.543 5.864 130.78 5.624 129.905 5.624C129.041 5.624 128.279 5.864 127.617 6.344C126.967 6.824 126.455 7.496 126.081 8.36C125.719 9.224 125.537 10.2373 125.537 11.4ZM36.031 32.64V40H37.727V32.64H36.031ZM40.431 32.64L37.263 35.68L40.767 40H42.879L39.375 35.68L42.559 32.64H40.431ZM50.9768 32.64H44.2408V37.2C44.2408 37.68 44.1235 38.0053 43.8888 38.176C43.6648 38.3467 43.3928 38.432 43.0728 38.432V40C43.7662 40 44.3208 39.9093 44.7368 39.728C45.1635 39.536 45.4675 39.2533 45.6488 38.88C45.8408 38.496 45.9368 38.016 45.9368 37.44V34.24H49.2808V40H50.9768V32.64ZM60.0326 34.24L60.1126 32.08L53.5046 38.4L53.4246 40.56L60.0326 34.24ZM55.1206 32.64H53.4246V40.56L55.1206 38.592V32.64ZM60.1126 32.08L58.4166 34.032V40H60.1126V32.08ZM62.8718 36.72H69.3358C69.3465 36.624 69.3518 36.5387 69.3518 36.464C69.3518 36.3787 69.3518 36.304 69.3518 36.24C69.3518 35.4613 69.2025 34.7947 68.9038 34.24C68.6158 33.6747 68.1945 33.2427 67.6398 32.944C67.0958 32.6347 66.4398 32.48 65.6718 32.48C64.9785 32.48 64.3652 32.608 63.8318 32.864C63.2985 33.12 62.8665 33.4773 62.5358 33.936C62.2158 34.3947 62.0025 34.928 61.8958 35.536C61.8745 35.664 61.8585 35.792 61.8478 35.92C61.8372 36.048 61.8318 36.1813 61.8318 36.32C61.8318 37.056 61.9865 37.7173 62.2958 38.304C62.6052 38.88 63.0425 39.3333 63.6078 39.664C64.1838 39.9947 64.8452 40.16 65.5918 40.16C66.2638 40.16 66.8238 40.08 67.2718 39.92C67.7305 39.7493 68.1198 39.5147 68.4398 39.216C68.7598 38.9173 69.0425 38.5653 69.2878 38.16L67.7838 37.568C67.6452 37.8027 67.4745 38.0107 67.2718 38.192C67.0692 38.3627 66.8345 38.496 66.5678 38.592C66.3118 38.688 66.0132 38.736 65.6718 38.736C65.2665 38.736 64.9038 38.6507 64.5838 38.48C64.2745 38.2987 64.0292 38.0267 63.8478 37.664C63.6772 37.3013 63.5918 36.8533 63.5918 36.32L63.6238 35.872C63.6238 35.4453 63.7092 35.0773 63.8798 34.768C64.0612 34.448 64.3065 34.208 64.6158 34.048C64.9252 33.8773 65.2718 33.792 65.6558 33.792C66.0292 33.792 66.3438 33.8667 66.5998 34.016C66.8558 34.1547 67.0532 34.3573 67.1918 34.624C67.3412 34.88 67.4372 35.1787 67.4798 35.52H62.8718V36.72ZM71.7688 36.832H77.4008V35.392H71.7688V36.832ZM76.4728 32.64V40H78.1688V32.64H76.4728ZM71.0168 32.64V40H72.7128V32.64H71.0168ZM79.3522 32.64V34.16H84.0082V32.64H79.3522ZM80.8402 32.96V40H82.5362V32.96H80.8402ZM84.3943 36.32C84.3943 37.0667 84.565 37.7333 84.9063 38.32C85.2583 38.896 85.733 39.3493 86.3303 39.68C86.9383 40 87.6157 40.16 88.3623 40.16C89.1197 40.16 89.797 40 90.3943 39.68C90.9917 39.3493 91.461 38.896 91.8023 38.32C92.1543 37.7333 92.3303 37.0667 92.3303 36.32C92.3303 35.5627 92.1543 34.896 91.8023 34.32C91.461 33.744 90.9917 33.296 90.3943 32.976C89.797 32.6453 89.1197 32.48 88.3623 32.48C87.6157 32.48 86.9383 32.6453 86.3303 32.976C85.733 33.296 85.2583 33.744 84.9063 34.32C84.565 34.896 84.3943 35.5627 84.3943 36.32ZM86.1703 36.32C86.1703 35.8613 86.2663 35.456 86.4583 35.104C86.6503 34.752 86.9117 34.48 87.2423 34.288C87.573 34.096 87.9463 34 88.3623 34C88.7783 34 89.1517 34.096 89.4823 34.288C89.813 34.48 90.0743 34.752 90.2663 35.104C90.4583 35.456 90.5543 35.8613 90.5543 36.32C90.5543 36.7787 90.4583 37.184 90.2663 37.536C90.0743 37.8773 89.813 38.1493 89.4823 38.352C89.1517 38.544 88.7783 38.64 88.3623 38.64C87.9463 38.64 87.573 38.544 87.2423 38.352C86.9117 38.1493 86.6503 37.8773 86.4583 37.536C86.2663 37.184 86.1703 36.7787 86.1703 36.32ZM95.0896 36.16V36.912H97.2176C97.4309 36.912 97.6123 36.9333 97.7616 36.976C97.9216 37.0187 98.0443 37.0827 98.1296 37.168C98.2256 37.2533 98.3003 37.3493 98.3536 37.456C98.4069 37.552 98.4336 37.6693 98.4336 37.808C98.4336 38.0533 98.3376 38.2667 98.1456 38.448C97.9536 38.6293 97.6443 38.72 97.2176 38.72H95.0896V40H97.7456C98.5883 40 99.1909 39.808 99.5536 39.424C99.9269 39.0293 100.114 38.5547 100.114 38C100.114 37.52 99.9963 37.1467 99.7616 36.88C99.5269 36.6133 99.2069 36.4267 98.8016 36.32C98.3963 36.2133 97.9376 36.16 97.4256 36.16H95.0896ZM95.0896 36.48H97.2656C97.7243 36.48 98.1403 36.416 98.5136 36.288C98.8976 36.1493 99.2069 35.9467 99.4416 35.68C99.6763 35.4027 99.7936 35.056 99.7936 34.64C99.7936 34.16 99.6763 33.776 99.4416 33.488C99.2069 33.1893 98.8976 32.976 98.5136 32.848C98.1403 32.7093 97.7243 32.64 97.2656 32.64H95.0896V33.92H97.0576C97.3883 33.92 97.6443 34 97.8256 34.16C98.0176 34.32 98.1136 34.5227 98.1136 34.768C98.1136 34.8853 98.0869 34.9973 98.0336 35.104C97.9909 35.2107 97.9216 35.3067 97.8256 35.392C97.7403 35.4773 97.6336 35.5413 97.5056 35.584C97.3776 35.6267 97.2283 35.648 97.0576 35.648H95.0896V36.48ZM94.0816 32.64V40H95.7776V32.64H94.0816ZM107.605 36.16V36.912H109.733C109.947 36.912 110.128 36.9333 110.277 36.976C110.437 37.0187 110.56 37.0827 110.645 37.168C110.741 37.2533 110.816 37.3493 110.869 37.456C110.923 37.552 110.949 37.6693 110.949 37.808C110.949 38.0533 110.853 38.2667 110.661 38.448C110.469 38.6293 110.16 38.72 109.733 38.72H107.605V40H110.261C111.104 40 111.707 39.808 112.069 39.424C112.443 39.0293 112.629 38.5547 112.629 38C112.629 37.52 112.512 37.1467 112.277 36.88C112.043 36.6133 111.723 36.4267 111.317 36.32C110.912 36.2133 110.453 36.16 109.941 36.16H107.605ZM107.605 36.48H109.781C110.24 36.48 110.656 36.416 111.029 36.288C111.413 36.1493 111.723 35.9467 111.957 35.68C112.192 35.4027 112.309 35.056 112.309 34.64C112.309 34.16 112.192 33.776 111.957 33.488C111.723 33.1893 111.413 32.976 111.029 32.848C110.656 32.7093 110.24 32.64 109.781 32.64H107.605V33.92H109.573C109.904 33.92 110.16 34 110.341 34.16C110.533 34.32 110.629 34.5227 110.629 34.768C110.629 34.8853 110.603 34.9973 110.549 35.104C110.507 35.2107 110.437 35.3067 110.341 35.392C110.256 35.4773 110.149 35.5413 110.021 35.584C109.893 35.6267 109.744 35.648 109.573 35.648H107.605V36.48ZM106.597 32.64V40H108.293V32.64H106.597ZM126.025 40H127.865L125.833 32.08L124.905 34.48L126.025 40ZM122.425 38.496L122.905 40.496L125.993 34.912L125.833 32.08L122.425 38.496ZM122.905 40.496L123.385 38.496L120.041 32.08L119.881 34.912L122.905 40.496ZM117.993 40H119.833L120.953 34.48L120.041 32.08L117.993 40ZM129.528 36.72H135.992C136.003 36.624 136.008 36.5387 136.008 36.464C136.008 36.3787 136.008 36.304 136.008 36.24C136.008 35.4613 135.859 34.7947 135.56 34.24C135.272 33.6747 134.851 33.2427 134.296 32.944C133.752 32.6347 133.096 32.48 132.328 32.48C131.635 32.48 131.021 32.608 130.488 32.864C129.955 33.12 129.523 33.4773 129.192 33.936C128.872 34.3947 128.659 34.928 128.552 35.536C128.531 35.664 128.515 35.792 128.504 35.92C128.493 36.048 128.488 36.1813 128.488 36.32C128.488 37.056 128.643 37.7173 128.952 38.304C129.261 38.88 129.699 39.3333 130.264 39.664C130.84 39.9947 131.501 40.16 132.248 40.16C132.92 40.16 133.48 40.08 133.928 39.92C134.387 39.7493 134.776 39.5147 135.096 39.216C135.416 38.9173 135.699 38.5653 135.944 38.16L134.44 37.568C134.301 37.8027 134.131 38.0107 133.928 38.192C133.725 38.3627 133.491 38.496 133.224 38.592C132.968 38.688 132.669 38.736 132.328 38.736C131.923 38.736 131.56 38.6507 131.24 38.48C130.931 38.2987 130.685 38.0267 130.504 37.664C130.333 37.3013 130.248 36.8533 130.248 36.32L130.28 35.872C130.28 35.4453 130.365 35.0773 130.536 34.768C130.717 34.448 130.963 34.208 131.272 34.048C131.581 33.8773 131.928 33.792 132.312 33.792C132.685 33.792 133 33.8667 133.256 34.016C133.512 34.1547 133.709 34.3573 133.848 34.624C133.997 34.88 134.093 35.1787 134.136 35.52H129.528V36.72ZM138.825 36.32C138.825 35.8613 138.926 35.456 139.129 35.104C139.332 34.752 139.604 34.4747 139.945 34.272C140.297 34.0693 140.686 33.968 141.113 33.968C141.454 33.968 141.785 34.0213 142.105 34.128C142.425 34.2347 142.708 34.384 142.953 34.576C143.209 34.7573 143.396 34.9707 143.513 35.216V33.296C143.257 33.0507 142.91 32.8533 142.473 32.704C142.036 32.5547 141.556 32.48 141.033 32.48C140.286 32.48 139.609 32.6453 139.001 32.976C138.404 33.296 137.929 33.744 137.577 34.32C137.225 34.896 137.049 35.5627 137.049 36.32C137.049 37.0667 137.225 37.7333 137.577 38.32C137.929 38.896 138.404 39.3493 139.001 39.68C139.609 40 140.286 40.16 141.033 40.16C141.556 40.16 142.036 40.0853 142.473 39.936C142.91 39.7867 143.257 39.584 143.513 39.328V37.424C143.396 37.6587 143.214 37.872 142.969 38.064C142.724 38.2453 142.441 38.3947 142.121 38.512C141.812 38.6187 141.476 38.672 141.113 38.672C140.686 38.672 140.297 38.5707 139.945 38.368C139.604 38.1653 139.332 37.888 139.129 37.536C138.926 37.184 138.825 36.7787 138.825 36.32ZM146.943 40L149.375 36.352H147.615L145.087 40H146.943ZM151.711 40V32.64H149.967V40H151.711ZM150.623 35.856H148.463C148.196 35.856 147.972 35.824 147.791 35.76C147.61 35.696 147.471 35.6 147.375 35.472C147.29 35.344 147.247 35.1733 147.247 34.96C147.247 34.7573 147.29 34.592 147.375 34.464C147.471 34.336 147.61 34.24 147.791 34.176C147.972 34.112 148.196 34.08 148.463 34.08H150.623V32.64H148.335C147.834 32.64 147.364 32.7147 146.927 32.864C146.5 33.0133 146.159 33.2533 145.903 33.584C145.647 33.904 145.519 34.336 145.519 34.88C145.519 35.424 145.647 35.8667 145.903 36.208C146.159 36.5387 146.5 36.784 146.927 36.944C147.364 37.0933 147.834 37.168 148.335 37.168H150.623V35.856ZM160.108 38.48V32.64H158.364V38.48H155.292V32.64H153.548V40H159.804V41.52H161.388V38.48H160.108Z" fill="white"/>
<line y1="10.5" x2="20" y2="10.5" stroke="white"/>
<path d="M209.23 5.8V17H211.118V5.8H209.23ZM210.35 7.464H212.606C213.257 7.464 213.779 7.61867 214.174 7.928C214.569 8.22667 214.766 8.67467 214.766 9.272C214.766 9.86933 214.569 10.3227 214.174 10.632C213.779 10.9413 213.257 11.096 212.606 11.096H210.35V12.76H212.606C213.427 12.76 214.137 12.6213 214.734 12.344C215.331 12.056 215.795 11.6507 216.126 11.128C216.467 10.6053 216.638 9.98667 216.638 9.272C216.638 8.55733 216.467 7.944 216.126 7.432C215.795 6.90933 215.331 6.50933 214.734 6.232C214.137 5.944 213.427 5.8 212.606 5.8H210.35V7.464ZM218.94 14.824C218.94 14.568 219.004 14.3493 219.132 14.168C219.26 13.976 219.446 13.832 219.692 13.736C219.937 13.6293 220.241 13.576 220.604 13.576C221.052 13.576 221.446 13.6347 221.788 13.752C222.129 13.8587 222.465 14.0347 222.796 14.28V13.368C222.71 13.2613 222.556 13.1387 222.332 13C222.108 12.8613 221.825 12.7387 221.484 12.632C221.153 12.5253 220.774 12.472 220.348 12.472C219.708 12.472 219.148 12.568 218.668 12.76C218.198 12.952 217.836 13.2293 217.58 13.592C217.324 13.9547 217.196 14.3867 217.196 14.888C217.196 15.3893 217.308 15.8107 217.532 16.152C217.766 16.4827 218.076 16.7333 218.46 16.904C218.854 17.0747 219.292 17.16 219.772 17.16C220.284 17.16 220.748 17.0747 221.164 16.904C221.58 16.7227 221.91 16.4667 222.156 16.136C222.401 15.7947 222.524 15.3893 222.524 14.92L222.268 14.072C222.268 14.5093 222.182 14.856 222.012 15.112C221.841 15.368 221.606 15.5547 221.308 15.672C221.009 15.7893 220.673 15.848 220.3 15.848C220.054 15.848 219.825 15.8107 219.612 15.736C219.409 15.6507 219.244 15.5333 219.116 15.384C218.998 15.2347 218.94 15.048 218.94 14.824ZM218.572 11.576C218.689 11.5013 218.854 11.4107 219.068 11.304C219.292 11.1867 219.548 11.0853 219.836 11C220.134 10.9147 220.46 10.872 220.812 10.872C221.217 10.872 221.558 10.968 221.836 11.16C222.124 11.3413 222.268 11.6027 222.268 11.944V17H223.964V11.752C223.964 11.2613 223.83 10.8453 223.564 10.504C223.308 10.1627 222.95 9.90667 222.492 9.736C222.033 9.55467 221.5 9.464 220.892 9.464C220.23 9.464 219.644 9.56 219.132 9.752C218.62 9.944 218.198 10.1413 217.868 10.344L218.572 11.576ZM229.496 11C229.912 11 230.286 11.096 230.616 11.288C230.947 11.48 231.208 11.752 231.4 12.104C231.592 12.456 231.688 12.8613 231.688 13.32C231.688 13.7787 231.592 14.184 231.4 14.536C231.208 14.8773 230.947 15.1493 230.616 15.352C230.286 15.544 229.912 15.64 229.496 15.64C229.08 15.64 228.707 15.544 228.376 15.352C228.046 15.1493 227.779 14.8773 227.576 14.536C227.384 14.184 227.288 13.7787 227.288 13.32L225.448 12.36C225.448 13.416 225.624 14.3013 225.976 15.016C226.328 15.7307 226.808 16.2693 227.416 16.632C228.035 16.984 228.728 17.16 229.496 17.16C230.275 17.16 230.958 16.9947 231.544 16.664C232.142 16.3333 232.611 15.88 232.952 15.304C233.294 14.7173 233.464 14.056 233.464 13.32C233.464 12.5733 233.294 11.912 232.952 11.336C232.622 10.76 232.163 10.3067 231.576 9.976C231 9.64533 230.334 9.48 229.576 9.48L229.496 11ZM226.52 13.32H227.288C227.288 12.9467 227.352 12.616 227.48 12.328C227.619 12.04 227.795 11.8 228.008 11.608C228.222 11.4053 228.462 11.256 228.728 11.16C228.995 11.0533 229.251 11 229.496 11L229.576 9.48C229.118 9.48 228.702 9.57067 228.328 9.752C227.955 9.92267 227.63 10.1733 227.352 10.504C227.086 10.8347 226.878 11.24 226.728 11.72C226.59 12.1893 226.52 12.7227 226.52 13.32ZM225.448 12.36L227.128 13.24L226.968 11.56C226.968 11.0267 227.038 10.5093 227.176 10.008C227.326 9.496 227.582 9.03733 227.944 8.632C228.307 8.216 228.819 7.89067 229.48 7.656C230.067 7.45333 230.59 7.20267 231.048 6.904C231.518 6.59467 231.896 6.23733 232.184 5.832C232.472 5.42667 232.643 4.98933 232.696 4.52H231.016C230.942 4.904 230.718 5.256 230.344 5.576C229.971 5.896 229.422 6.18933 228.696 6.456C227.854 6.776 227.192 7.208 226.712 7.752C226.243 8.28533 225.912 8.936 225.72 9.704C225.539 10.472 225.448 11.3573 225.448 12.36ZM234.573 13.32C234.573 14.0667 234.743 14.7333 235.085 15.32C235.437 15.896 235.911 16.3493 236.509 16.68C237.117 17 237.794 17.16 238.541 17.16C239.298 17.16 239.975 17 240.573 16.68C241.17 16.3493 241.639 15.896 241.981 15.32C242.333 14.7333 242.509 14.0667 242.509 13.32C242.509 12.5627 242.333 11.896 241.981 11.32C241.639 10.744 241.17 10.296 240.573 9.976C239.975 9.64533 239.298 9.48 238.541 9.48C237.794 9.48 237.117 9.64533 236.509 9.976C235.911 10.296 235.437 10.744 235.085 11.32C234.743 11.896 234.573 12.5627 234.573 13.32ZM236.349 13.32C236.349 12.8613 236.445 12.456 236.637 12.104C236.829 11.752 237.09 11.48 237.421 11.288C237.751 11.096 238.125 11 238.541 11C238.957 11 239.33 11.096 239.661 11.288C239.991 11.48 240.253 11.752 240.445 12.104C240.637 12.456 240.733 12.8613 240.733 13.32C240.733 13.7787 240.637 14.184 240.445 14.536C240.253 14.8773 239.991 15.1493 239.661 15.352C239.33 15.544 238.957 15.64 238.541 15.64C238.125 15.64 237.751 15.544 237.421 15.352C237.09 15.1493 236.829 14.8773 236.637 14.536C236.445 14.184 236.349 13.7787 236.349 13.32ZM243.14 9.64V11.16H247.796V9.64H243.14ZM244.628 9.96V17H246.324V9.96H244.628ZM250.065 14.824C250.065 14.568 250.129 14.3493 250.257 14.168C250.385 13.976 250.571 13.832 250.817 13.736C251.062 13.6293 251.366 13.576 251.729 13.576C252.177 13.576 252.571 13.6347 252.913 13.752C253.254 13.8587 253.59 14.0347 253.921 14.28V13.368C253.835 13.2613 253.681 13.1387 253.457 13C253.233 12.8613 252.95 12.7387 252.609 12.632C252.278 12.5253 251.899 12.472 251.473 12.472C250.833 12.472 250.273 12.568 249.793 12.76C249.323 12.952 248.961 13.2293 248.705 13.592C248.449 13.9547 248.321 14.3867 248.321 14.888C248.321 15.3893 248.433 15.8107 248.657 16.152C248.891 16.4827 249.201 16.7333 249.585 16.904C249.979 17.0747 250.417 17.16 250.897 17.16C251.409 17.16 251.873 17.0747 252.289 16.904C252.705 16.7227 253.035 16.4667 253.281 16.136C253.526 15.7947 253.649 15.3893 253.649 14.92L253.393 14.072C253.393 14.5093 253.307 14.856 253.137 15.112C252.966 15.368 252.731 15.5547 252.433 15.672C252.134 15.7893 251.798 15.848 251.425 15.848C251.179 15.848 250.95 15.8107 250.737 15.736C250.534 15.6507 250.369 15.5333 250.241 15.384C250.123 15.2347 250.065 15.048 250.065 14.824ZM249.697 11.576C249.814 11.5013 249.979 11.4107 250.193 11.304C250.417 11.1867 250.673 11.0853 250.961 11C251.259 10.9147 251.585 10.872 251.937 10.872C252.342 10.872 252.683 10.968 252.961 11.16C253.249 11.3413 253.393 11.6027 253.393 11.944V17H255.089V11.752C255.089 11.2613 254.955 10.8453 254.689 10.504C254.433 10.1627 254.075 9.90667 253.617 9.736C253.158 9.55467 252.625 9.464 252.017 9.464C251.355 9.464 250.769 9.56 250.257 9.752C249.745 9.944 249.323 10.1413 248.993 10.344L249.697 11.576ZM257.597 13.72H264.061C264.072 13.624 264.077 13.5387 264.077 13.464C264.077 13.3787 264.077 13.304 264.077 13.24C264.077 12.4613 263.928 11.7947 263.629 11.24C263.341 10.6747 262.92 10.2427 262.365 9.944C261.821 9.63467 261.165 9.48 260.397 9.48C259.704 9.48 259.091 9.608 258.557 9.864C258.024 10.12 257.592 10.4773 257.261 10.936C256.941 11.3947 256.728 11.928 256.621 12.536C256.6 12.664 256.584 12.792 256.573 12.92C256.563 13.048 256.557 13.1813 256.557 13.32C256.557 14.056 256.712 14.7173 257.021 15.304C257.331 15.88 257.768 16.3333 258.333 16.664C258.909 16.9947 259.571 17.16 260.317 17.16C260.989 17.16 261.549 17.08 261.997 16.92C262.456 16.7493 262.845 16.5147 263.165 16.216C263.485 15.9173 263.768 15.5653 264.013 15.16L262.509 14.568C262.371 14.8027 262.2 15.0107 261.997 15.192C261.795 15.3627 261.56 15.496 261.293 15.592C261.037 15.688 260.739 15.736 260.397 15.736C259.992 15.736 259.629 15.6507 259.309 15.48C259 15.2987 258.755 15.0267 258.573 14.664C258.403 14.3013 258.317 13.8533 258.317 13.32L258.349 12.872C258.349 12.4453 258.435 12.0773 258.605 11.768C258.787 11.448 259.032 11.208 259.341 11.048C259.651 10.8773 259.997 10.792 260.381 10.792C260.755 10.792 261.069 10.8667 261.325 11.016C261.581 11.1547 261.779 11.3573 261.917 11.624C262.067 11.88 262.163 12.1787 262.205 12.52H257.597V13.72ZM272.75 17H274.59L272.558 9.08L271.63 11.48L272.75 17ZM269.15 15.496L269.63 17.496L272.718 11.912L272.558 9.08L269.15 15.496ZM269.63 17.496L270.11 15.496L266.766 9.08L266.606 11.912L269.63 17.496ZM264.718 17H266.558L267.678 11.48L266.766 9.08L264.718 17ZM284.826 12.12L286.826 16.52L288.634 16.312L284.826 9.08L281.034 16.312L282.826 16.52L284.826 12.12ZM287.866 17V18.44H289.546V15.512H280.106V18.44H281.866V17H287.866ZM290.807 13.32C290.807 14.0667 290.978 14.7333 291.319 15.32C291.671 15.896 292.146 16.3493 292.743 16.68C293.351 17 294.029 17.16 294.775 17.16C295.533 17.16 296.21 17 296.807 16.68C297.405 16.3493 297.874 15.896 298.215 15.32C298.567 14.7333 298.743 14.0667 298.743 13.32C298.743 12.5627 298.567 11.896 298.215 11.32C297.874 10.744 297.405 10.296 296.807 9.976C296.21 9.64533 295.533 9.48 294.775 9.48C294.029 9.48 293.351 9.64533 292.743 9.976C292.146 10.296 291.671 10.744 291.319 11.32C290.978 11.896 290.807 12.5627 290.807 13.32ZM292.583 13.32C292.583 12.8613 292.679 12.456 292.871 12.104C293.063 11.752 293.325 11.48 293.655 11.288C293.986 11.096 294.359 11 294.775 11C295.191 11 295.565 11.096 295.895 11.288C296.226 11.48 296.487 11.752 296.679 12.104C296.871 12.456 296.967 12.8613 296.967 13.32C296.967 13.7787 296.871 14.184 296.679 14.536C296.487 14.8773 296.226 15.1493 295.895 15.352C295.565 15.544 295.191 15.64 294.775 15.64C294.359 15.64 293.986 15.544 293.655 15.352C293.325 15.1493 293.063 14.8773 292.871 14.536C292.679 14.184 292.583 13.7787 292.583 13.32ZM215.598 32.64H209.086V40H210.782V34.192H213.902V40H215.598V32.64ZM217.245 36.32C217.245 37.0667 217.415 37.7333 217.757 38.32C218.109 38.896 218.583 39.3493 219.181 39.68C219.789 40 220.466 40.16 221.213 40.16C221.97 40.16 222.647 40 223.245 39.68C223.842 39.3493 224.311 38.896 224.653 38.32C225.005 37.7333 225.181 37.0667 225.181 36.32C225.181 35.5627 225.005 34.896 224.653 34.32C224.311 33.744 223.842 33.296 223.245 32.976C222.647 32.6453 221.97 32.48 221.213 32.48C220.466 32.48 219.789 32.6453 219.181 32.976C218.583 33.296 218.109 33.744 217.757 34.32C217.415 34.896 217.245 35.5627 217.245 36.32ZM219.021 36.32C219.021 35.8613 219.117 35.456 219.309 35.104C219.501 34.752 219.762 34.48 220.093 34.288C220.423 34.096 220.797 34 221.213 34C221.629 34 222.002 34.096 222.333 34.288C222.663 34.48 222.925 34.752 223.117 35.104C223.309 35.456 223.405 35.8613 223.405 36.32C223.405 36.7787 223.309 37.184 223.117 37.536C222.925 37.8773 222.663 38.1493 222.333 38.352C222.002 38.544 221.629 38.64 221.213 38.64C220.797 38.64 220.423 38.544 220.093 38.352C219.762 38.1493 219.501 37.8773 219.309 37.536C219.117 37.184 219.021 36.7787 219.021 36.32ZM227.988 36.32C227.988 35.8613 228.089 35.456 228.292 35.104C228.495 34.752 228.767 34.4747 229.108 34.272C229.46 34.0693 229.849 33.968 230.276 33.968C230.617 33.968 230.948 34.0213 231.268 34.128C231.588 34.2347 231.871 34.384 232.116 34.576C232.372 34.7573 232.559 34.9707 232.676 35.216V33.296C232.42 33.0507 232.073 32.8533 231.636 32.704C231.199 32.5547 230.719 32.48 230.196 32.48C229.449 32.48 228.772 32.6453 228.164 32.976C227.567 33.296 227.092 33.744 226.74 34.32C226.388 34.896 226.212 35.5627 226.212 36.32C226.212 37.0667 226.388 37.7333 226.74 38.32C227.092 38.896 227.567 39.3493 228.164 39.68C228.772 40 229.449 40.16 230.196 40.16C230.719 40.16 231.199 40.0853 231.636 39.936C232.073 39.7867 232.42 39.584 232.676 39.328V37.424C232.559 37.6587 232.377 37.872 232.132 38.064C231.887 38.2453 231.604 38.3947 231.284 38.512C230.975 38.6187 230.639 38.672 230.276 38.672C229.849 38.672 229.46 38.5707 229.108 38.368C228.767 38.1653 228.495 37.888 228.292 37.536C228.089 37.184 227.988 36.7787 227.988 36.32ZM241.546 32.64H234.81V37.2C234.81 37.68 234.693 38.0053 234.458 38.176C234.234 38.3467 233.962 38.432 233.642 38.432V40C234.335 40 234.89 39.9093 235.306 39.728C235.733 39.536 236.037 39.2533 236.218 38.88C236.41 38.496 236.506 38.016 236.506 37.44V34.24H239.85V40H241.546V32.64ZM244.41 36.72H250.874C250.884 36.624 250.89 36.5387 250.89 36.464C250.89 36.3787 250.89 36.304 250.89 36.24C250.89 35.4613 250.74 34.7947 250.442 34.24C250.154 33.6747 249.732 33.2427 249.178 32.944C248.634 32.6347 247.978 32.48 247.21 32.48C246.516 32.48 245.903 32.608 245.37 32.864C244.836 33.12 244.404 33.4773 244.074 33.936C243.754 34.3947 243.54 34.928 243.434 35.536C243.412 35.664 243.396 35.792 243.386 35.92C243.375 36.048 243.37 36.1813 243.37 36.32C243.37 37.056 243.524 37.7173 243.834 38.304C244.143 38.88 244.58 39.3333 245.146 39.664C245.722 39.9947 246.383 40.16 247.13 40.16C247.802 40.16 248.362 40.08 248.81 39.92C249.268 39.7493 249.658 39.5147 249.978 39.216C250.298 38.9173 250.58 38.5653 250.826 38.16L249.322 37.568C249.183 37.8027 249.012 38.0107 248.81 38.192C248.607 38.3627 248.372 38.496 248.106 38.592C247.85 38.688 247.551 38.736 247.21 38.736C246.804 38.736 246.442 38.6507 246.122 38.48C245.812 38.2987 245.567 38.0267 245.386 37.664C245.215 37.3013 245.13 36.8533 245.13 36.32L245.162 35.872C245.162 35.4453 245.247 35.0773 245.418 34.768C245.599 34.448 245.844 34.208 246.154 34.048C246.463 33.8773 246.81 33.792 247.194 33.792C247.567 33.792 247.882 33.8667 248.138 34.016C248.394 34.1547 248.591 34.3573 248.73 34.624C248.879 34.88 248.975 35.1787 249.018 35.52H244.41V36.72ZM256.014 35.12L258.014 39.52L259.822 39.312L256.014 32.08L252.222 39.312L254.014 39.52L256.014 35.12ZM259.054 40V41.44H260.734V38.512H251.294V41.44H253.054V40H259.054ZM263.307 36.832H268.939V35.392H263.307V36.832ZM268.011 32.64V40H269.707V32.64H268.011ZM262.555 32.64V40H264.251V32.64H262.555ZM272.394 36.72H278.858C278.869 36.624 278.874 36.5387 278.874 36.464C278.874 36.3787 278.874 36.304 278.874 36.24C278.874 35.4613 278.725 34.7947 278.426 34.24C278.138 33.6747 277.717 33.2427 277.162 32.944C276.618 32.6347 275.962 32.48 275.194 32.48C274.501 32.48 273.887 32.608 273.354 32.864C272.821 33.12 272.389 33.4773 272.058 33.936C271.738 34.3947 271.525 34.928 271.418 35.536C271.397 35.664 271.381 35.792 271.37 35.92C271.359 36.048 271.354 36.1813 271.354 36.32C271.354 37.056 271.509 37.7173 271.818 38.304C272.127 38.88 272.565 39.3333 273.13 39.664C273.706 39.9947 274.367 40.16 275.114 40.16C275.786 40.16 276.346 40.08 276.794 39.92C277.253 39.7493 277.642 39.5147 277.962 39.216C278.282 38.9173 278.565 38.5653 278.81 38.16L277.306 37.568C277.167 37.8027 276.997 38.0107 276.794 38.192C276.591 38.3627 276.357 38.496 276.09 38.592C275.834 38.688 275.535 38.736 275.194 38.736C274.789 38.736 274.426 38.6507 274.106 38.48C273.797 38.2987 273.551 38.0267 273.37 37.664C273.199 37.3013 273.114 36.8533 273.114 36.32L273.146 35.872C273.146 35.4453 273.231 35.0773 273.402 34.768C273.583 34.448 273.829 34.208 274.138 34.048C274.447 33.8773 274.794 33.792 275.178 33.792C275.551 33.792 275.866 33.8667 276.122 34.016C276.378 34.1547 276.575 34.3573 276.714 34.624C276.863 34.88 276.959 35.1787 277.002 35.52H272.394V36.72ZM280.603 32.64V40H282.315V34.16H284.843V32.64H280.603ZM285.198 36.32C285.198 37.0667 285.368 37.7333 285.71 38.32C286.062 38.896 286.536 39.3493 287.134 39.68C287.742 40 288.419 40.16 289.166 40.16C289.923 40.16 290.6 40 291.198 39.68C291.795 39.3493 292.264 38.896 292.606 38.32C292.958 37.7333 293.134 37.0667 293.134 36.32C293.134 35.5627 292.958 34.896 292.606 34.32C292.264 33.744 291.795 33.296 291.198 32.976C290.6 32.6453 289.923 32.48 289.166 32.48C288.419 32.48 287.742 32.6453 287.134 32.976C286.536 33.296 286.062 33.744 285.71 34.32C285.368 34.896 285.198 35.5627 285.198 36.32ZM286.974 36.32C286.974 35.8613 287.07 35.456 287.262 35.104C287.454 34.752 287.715 34.48 288.046 34.288C288.376 34.096 288.75 34 289.166 34C289.582 34 289.955 34.096 290.286 34.288C290.616 34.48 290.878 34.752 291.07 35.104C291.262 35.456 291.358 35.8613 291.358 36.32C291.358 36.7787 291.262 37.184 291.07 37.536C290.878 37.8773 290.616 38.1493 290.286 38.352C289.955 38.544 289.582 38.64 289.166 38.64C288.75 38.64 288.376 38.544 288.046 38.352C287.715 38.1493 287.454 37.8773 287.262 37.536C287.07 37.184 286.974 36.7787 286.974 36.32ZM299.522 32.64V40H301.218V32.64H299.522ZM303.922 32.64L300.754 35.68L304.258 40H306.37L302.866 35.68L306.05 32.64H303.922ZM314.468 32.64H307.732V37.2C307.732 37.68 307.614 38.0053 307.38 38.176C307.156 38.3467 306.884 38.432 306.564 38.432V40C307.257 40 307.812 39.9093 308.228 39.728C308.654 39.536 308.958 39.2533 309.14 38.88C309.332 38.496 309.428 38.016 309.428 37.44V34.24H312.772V40H314.468V32.64ZM323.524 34.24L323.604 32.08L316.996 38.4L316.916 40.56L323.524 34.24ZM318.612 32.64H316.916V40.56L318.612 38.592V32.64ZM323.604 32.08L321.908 34.032V40H323.604V32.08ZM326.363 36.72H332.827C332.837 36.624 332.843 36.5387 332.843 36.464C332.843 36.3787 332.843 36.304 332.843 36.24C332.843 35.4613 332.693 34.7947 332.395 34.24C332.107 33.6747 331.685 33.2427 331.131 32.944C330.587 32.6347 329.931 32.48 329.163 32.48C328.469 32.48 327.856 32.608 327.323 32.864C326.789 33.12 326.357 33.4773 326.027 33.936C325.707 34.3947 325.493 34.928 325.387 35.536C325.365 35.664 325.349 35.792 325.339 35.92C325.328 36.048 325.323 36.1813 325.323 36.32C325.323 37.056 325.477 37.7173 325.787 38.304C326.096 38.88 326.533 39.3333 327.099 39.664C327.675 39.9947 328.336 40.16 329.083 40.16C329.755 40.16 330.315 40.08 330.763 39.92C331.221 39.7493 331.611 39.5147 331.931 39.216C332.251 38.9173 332.533 38.5653 332.779 38.16L331.275 37.568C331.136 37.8027 330.965 38.0107 330.763 38.192C330.56 38.3627 330.325 38.496 330.059 38.592C329.803 38.688 329.504 38.736 329.163 38.736C328.757 38.736 328.395 38.6507 328.075 38.48C327.765 38.2987 327.52 38.0267 327.339 37.664C327.168 37.3013 327.083 36.8533 327.083 36.32L327.115 35.872C327.115 35.4453 327.2 35.0773 327.371 34.768C327.552 34.448 327.797 34.208 328.107 34.048C328.416 33.8773 328.763 33.792 329.147 33.792C329.52 33.792 329.835 33.8667 330.091 34.016C330.347 34.1547 330.544 34.3573 330.683 34.624C330.832 34.88 330.928 35.1787 330.971 35.52H326.363V36.72ZM335.26 36.832H340.892V35.392H335.26V36.832ZM339.964 32.64V40H341.66V32.64H339.964ZM334.508 32.64V40H336.204V32.64H334.508ZM342.843 32.64V34.16H347.499V32.64H342.843ZM344.331 32.96V40H346.027V32.96H344.331ZM349.768 37.824C349.768 37.568 349.832 37.3493 349.96 37.168C350.088 36.976 350.274 36.832 350.52 36.736C350.765 36.6293 351.069 36.576 351.432 36.576C351.88 36.576 352.274 36.6347 352.616 36.752C352.957 36.8587 353.293 37.0347 353.624 37.28V36.368C353.538 36.2613 353.384 36.1387 353.16 36C352.936 35.8613 352.653 35.7387 352.312 35.632C351.981 35.5253 351.602 35.472 351.176 35.472C350.536 35.472 349.976 35.568 349.496 35.76C349.026 35.952 348.664 36.2293 348.408 36.592C348.152 36.9547 348.024 37.3867 348.024 37.888C348.024 38.3893 348.136 38.8107 348.36 39.152C348.594 39.4827 348.904 39.7333 349.288 39.904C349.682 40.0747 350.12 40.16 350.6 40.16C351.112 40.16 351.576 40.0747 351.992 39.904C352.408 39.7227 352.738 39.4667 352.984 39.136C353.229 38.7947 353.352 38.3893 353.352 37.92L353.096 37.072C353.096 37.5093 353.01 37.856 352.84 38.112C352.669 38.368 352.434 38.5547 352.136 38.672C351.837 38.7893 351.501 38.848 351.128 38.848C350.882 38.848 350.653 38.8107 350.44 38.736C350.237 38.6507 350.072 38.5333 349.944 38.384C349.826 38.2347 349.768 38.048 349.768 37.824ZM349.4 34.576C349.517 34.5013 349.682 34.4107 349.896 34.304C350.12 34.1867 350.376 34.0853 350.664 34C350.962 33.9147 351.288 33.872 351.64 33.872C352.045 33.872 352.386 33.968 352.664 34.16C352.952 34.3413 353.096 34.6027 353.096 34.944V40H354.792V34.752C354.792 34.2613 354.658 33.8453 354.392 33.504C354.136 33.1627 353.778 32.9067 353.32 32.736C352.861 32.5547 352.328 32.464 351.72 32.464C351.058 32.464 350.472 32.56 349.96 32.752C349.448 32.944 349.026 33.1413 348.696 33.344L349.4 34.576Z" fill="white"/>
<line x1="172.991" y1="14.5" x2="192.991" y2="14.5" stroke="white"/>
<path d="M407.661 11.224H409.597C410.312 11.224 410.936 11.1227 411.469 10.92C412.002 10.7173 412.418 10.424 412.717 10.04C413.026 9.64533 413.181 9.17067 413.181 8.616C413.181 7.976 413.026 7.448 412.717 7.032C412.418 6.616 412.002 6.30667 411.469 6.104C410.936 5.90133 410.312 5.8 409.597 5.8H406.221V17H409.789C410.589 17 411.288 16.888 411.885 16.664C412.493 16.4293 412.968 16.072 413.309 15.592C413.65 15.112 413.821 14.504 413.821 13.768C413.821 13.2347 413.714 12.776 413.501 12.392C413.288 12.008 412.994 11.6933 412.621 11.448C412.248 11.2027 411.816 11.0213 411.325 10.904C410.845 10.776 410.333 10.712 409.789 10.712H407.661V11.768H409.677C409.997 11.768 410.29 11.8053 410.557 11.88C410.824 11.944 411.058 12.056 411.261 12.216C411.464 12.3653 411.618 12.552 411.725 12.776C411.832 13 411.885 13.2667 411.885 13.576C411.885 13.992 411.789 14.3387 411.597 14.616C411.405 14.8827 411.144 15.0853 410.813 15.224C410.482 15.3627 410.104 15.432 409.677 15.432H408.109V7.352H409.469C410.002 7.352 410.429 7.48 410.749 7.736C411.08 7.992 411.245 8.35467 411.245 8.824C411.245 9.13333 411.17 9.4 411.021 9.624C410.872 9.83733 410.664 10.0027 410.397 10.12C410.13 10.2373 409.821 10.296 409.469 10.296H407.661V11.224ZM416.774 14.824C416.774 14.568 416.838 14.3493 416.966 14.168C417.094 13.976 417.281 13.832 417.526 13.736C417.772 13.6293 418.076 13.576 418.438 13.576C418.886 13.576 419.281 13.6347 419.622 13.752C419.964 13.8587 420.3 14.0347 420.63 14.28V13.368C420.545 13.2613 420.39 13.1387 420.166 13C419.942 12.8613 419.66 12.7387 419.318 12.632C418.988 12.5253 418.609 12.472 418.182 12.472C417.542 12.472 416.982 12.568 416.502 12.76C416.033 12.952 415.67 13.2293 415.414 13.592C415.158 13.9547 415.03 14.3867 415.03 14.888C415.03 15.3893 415.142 15.8107 415.366 16.152C415.601 16.4827 415.91 16.7333 416.294 16.904C416.689 17.0747 417.126 17.16 417.606 17.16C418.118 17.16 418.582 17.0747 418.998 16.904C419.414 16.7227 419.745 16.4667 419.99 16.136C420.236 15.7947 420.358 15.3893 420.358 14.92L420.102 14.072C420.102 14.5093 420.017 14.856 419.846 15.112C419.676 15.368 419.441 15.5547 419.142 15.672C418.844 15.7893 418.508 15.848 418.134 15.848C417.889 15.848 417.66 15.8107 417.446 15.736C417.244 15.6507 417.078 15.5333 416.95 15.384C416.833 15.2347 416.774 15.048 416.774 14.824ZM416.406 11.576C416.524 11.5013 416.689 11.4107 416.902 11.304C417.126 11.1867 417.382 11.0853 417.67 11C417.969 10.9147 418.294 10.872 418.646 10.872C419.052 10.872 419.393 10.968 419.67 11.16C419.958 11.3413 420.102 11.6027 420.102 11.944V17H421.798V11.752C421.798 11.2613 421.665 10.8453 421.398 10.504C421.142 10.1627 420.785 9.90667 420.326 9.736C419.868 9.55467 419.334 9.464 418.726 9.464C418.065 9.464 417.478 9.56 416.966 9.752C416.454 9.944 416.033 10.1413 415.702 10.344L416.406 11.576ZM425.507 20.52V9.64H423.763V20.52H425.507ZM431.603 13.32C431.603 12.488 431.438 11.7893 431.107 11.224C430.776 10.648 430.339 10.2053 429.795 9.896C429.251 9.58667 428.659 9.432 428.019 9.432C427.4 9.432 426.856 9.592 426.387 9.912C425.928 10.232 425.571 10.68 425.315 11.256C425.059 11.832 424.931 12.52 424.931 13.32C424.931 14.1093 425.059 14.7973 425.315 15.384C425.571 15.96 425.928 16.408 426.387 16.728C426.856 17.0373 427.4 17.192 428.019 17.192C428.659 17.192 429.251 17.0427 429.795 16.744C430.339 16.4347 430.776 15.992 431.107 15.416C431.438 14.8293 431.603 14.1307 431.603 13.32ZM429.811 13.32C429.811 13.8107 429.71 14.2267 429.507 14.568C429.304 14.9093 429.038 15.1707 428.707 15.352C428.376 15.5333 428.008 15.624 427.603 15.624C427.262 15.624 426.931 15.5387 426.611 15.368C426.291 15.1867 426.024 14.9253 425.811 14.584C425.608 14.2427 425.507 13.8213 425.507 13.32C425.507 12.8187 425.608 12.3973 425.811 12.056C426.024 11.7147 426.291 11.4587 426.611 11.288C426.931 11.1067 427.262 11.016 427.603 11.016C428.008 11.016 428.376 11.1067 428.707 11.288C429.038 11.4587 429.304 11.72 429.507 12.072C429.71 12.4133 429.811 12.8293 429.811 13.32ZM439.921 11.24L440.001 9.08L433.393 15.4L433.313 17.56L439.921 11.24ZM435.009 9.64H433.313V17.56L435.009 15.592V9.64ZM440.001 9.08L438.305 11.032V17H440.001V9.08ZM449.288 17H451.128L449.096 9.08L448.168 11.48L449.288 17ZM445.688 15.496L446.168 17.496L449.256 11.912L449.096 9.08L445.688 15.496ZM446.168 17.496L446.648 15.496L443.304 9.08L443.144 11.912L446.168 17.496ZM441.256 17H443.096L444.216 11.48L443.304 9.08L441.256 17ZM407.181 36.16V36.912H409.309C409.522 36.912 409.704 36.9333 409.853 36.976C410.013 37.0187 410.136 37.0827 410.221 37.168C410.317 37.2533 410.392 37.3493 410.445 37.456C410.498 37.552 410.525 37.6693 410.525 37.808C410.525 38.0533 410.429 38.2667 410.237 38.448C410.045 38.6293 409.736 38.72 409.309 38.72H407.181V40H409.837C410.68 40 411.282 39.808 411.645 39.424C412.018 39.0293 412.205 38.5547 412.205 38C412.205 37.52 412.088 37.1467 411.853 36.88C411.618 36.6133 411.298 36.4267 410.893 36.32C410.488 36.2133 410.029 36.16 409.517 36.16H407.181ZM407.181 36.48H409.357C409.816 36.48 410.232 36.416 410.605 36.288C410.989 36.1493 411.298 35.9467 411.533 35.68C411.768 35.4027 411.885 35.056 411.885 34.64C411.885 34.16 411.768 33.776 411.533 33.488C411.298 33.1893 410.989 32.976 410.605 32.848C410.232 32.7093 409.816 32.64 409.357 32.64H407.181V33.92H409.149C409.48 33.92 409.736 34 409.917 34.16C410.109 34.32 410.205 34.5227 410.205 34.768C410.205 34.8853 410.178 34.9973 410.125 35.104C410.082 35.2107 410.013 35.3067 409.917 35.392C409.832 35.4773 409.725 35.5413 409.597 35.584C409.469 35.6267 409.32 35.648 409.149 35.648H407.181V36.48ZM406.173 32.64V40H407.869V32.64H406.173ZM413.732 32.64V40H415.428V32.64H413.732ZM418.132 32.64L414.964 35.68L418.468 40H420.58L417.076 35.68L420.26 32.64H418.132ZM428.464 32.64H426.608L424.304 38.416L425.12 38.464L422.768 32.64H420.784L423.76 39.136L421.824 43.52H423.664L428.464 32.64ZM430.432 36.32C430.432 35.8613 430.533 35.456 430.736 35.104C430.939 34.752 431.211 34.4747 431.552 34.272C431.904 34.0693 432.293 33.968 432.72 33.968C433.061 33.968 433.392 34.0213 433.712 34.128C434.032 34.2347 434.315 34.384 434.56 34.576C434.816 34.7573 435.003 34.9707 435.12 35.216V33.296C434.864 33.0507 434.517 32.8533 434.08 32.704C433.643 32.5547 433.163 32.48 432.64 32.48C431.893 32.48 431.216 32.6453 430.608 32.976C430.011 33.296 429.536 33.744 429.184 34.32C428.832 34.896 428.656 35.5627 428.656 36.32C428.656 37.0667 428.832 37.7333 429.184 38.32C429.536 38.896 430.011 39.3493 430.608 39.68C431.216 40 431.893 40.16 432.64 40.16C433.163 40.16 433.643 40.0853 434.08 39.936C434.517 39.7867 434.864 39.584 435.12 39.328V37.424C435.003 37.6587 434.821 37.872 434.576 38.064C434.331 38.2453 434.048 38.3947 433.728 38.512C433.419 38.6187 433.083 38.672 432.72 38.672C432.293 38.672 431.904 38.5707 431.552 38.368C431.211 38.1653 430.939 37.888 430.736 37.536C430.533 37.184 430.432 36.7787 430.432 36.32ZM437.782 36.832H443.414V35.392H437.782V36.832ZM442.486 32.64V40H444.182V32.64H442.486ZM437.03 32.64V40H438.726V32.64H437.03ZM446.869 36.72H453.333C453.344 36.624 453.349 36.5387 453.349 36.464C453.349 36.3787 453.349 36.304 453.349 36.24C453.349 35.4613 453.2 34.7947 452.901 34.24C452.613 33.6747 452.192 33.2427 451.637 32.944C451.093 32.6347 450.437 32.48 449.669 32.48C448.976 32.48 448.363 32.608 447.829 32.864C447.296 33.12 446.864 33.4773 446.533 33.936C446.213 34.3947 446 34.928 445.893 35.536C445.872 35.664 445.856 35.792 445.845 35.92C445.835 36.048 445.829 36.1813 445.829 36.32C445.829 37.056 445.984 37.7173 446.293 38.304C446.603 38.88 447.04 39.3333 447.605 39.664C448.181 39.9947 448.843 40.16 449.589 40.16C450.261 40.16 450.821 40.08 451.269 39.92C451.728 39.7493 452.117 39.5147 452.437 39.216C452.757 38.9173 453.04 38.5653 453.285 38.16L451.781 37.568C451.643 37.8027 451.472 38.0107 451.269 38.192C451.067 38.3627 450.832 38.496 450.565 38.592C450.309 38.688 450.011 38.736 449.669 38.736C449.264 38.736 448.901 38.6507 448.581 38.48C448.272 38.2987 448.027 38.0267 447.845 37.664C447.675 37.3013 447.589 36.8533 447.589 36.32L447.621 35.872C447.621 35.4453 447.707 35.0773 447.877 34.768C448.059 34.448 448.304 34.208 448.613 34.048C448.923 33.8773 449.269 33.792 449.653 33.792C450.027 33.792 450.341 33.8667 450.597 34.016C450.853 34.1547 451.051 34.3573 451.189 34.624C451.339 34.88 451.435 35.1787 451.477 35.52H446.869V36.72ZM461.686 34.24L461.766 32.08L455.158 38.4L455.078 40.56L461.686 34.24ZM456.774 32.64H455.078V40.56L456.774 38.592V32.64ZM461.766 32.08L460.07 34.032V40H461.766V32.08ZM455.926 28.88C455.926 29.264 456.022 29.632 456.214 29.984C456.406 30.336 456.694 30.6187 457.078 30.832C457.462 31.0453 457.932 31.152 458.486 31.152C459.052 31.152 459.526 31.0453 459.91 30.832C460.294 30.6187 460.582 30.336 460.774 29.984C460.966 29.632 461.062 29.264 461.062 28.88H459.75C459.75 29.04 459.708 29.2053 459.622 29.376C459.548 29.536 459.414 29.68 459.222 29.808C459.041 29.9253 458.796 29.984 458.486 29.984C458.188 29.984 457.942 29.9253 457.75 29.808C457.569 29.68 457.436 29.536 457.35 29.376C457.276 29.2053 457.238 29.04 457.238 28.88H455.926ZM470.222 38.48V32.64H468.51V38.48H465.742V32.64H464.046V40H474.686V32.64H472.99V38.48H470.222ZM483.561 34.24L483.641 32.08L477.033 38.4L476.953 40.56L483.561 34.24ZM478.649 32.64H476.953V40.56L478.649 38.592V32.64ZM483.641 32.08L481.945 34.032V40H483.641V32.08ZM492.593 34.24L492.673 32.08L486.065 38.4L485.985 40.56L492.593 34.24ZM487.681 32.64H485.985V40.56L487.681 38.592V32.64ZM492.673 32.08L490.977 34.032V40H492.673V32.08ZM486.833 28.88C486.833 29.264 486.929 29.632 487.121 29.984C487.313 30.336 487.601 30.6187 487.985 30.832C488.369 31.0453 488.838 31.152 489.393 31.152C489.958 31.152 490.433 31.0453 490.817 30.832C491.201 30.6187 491.489 30.336 491.681 29.984C491.873 29.632 491.969 29.264 491.969 28.88H490.657C490.657 29.04 490.614 29.2053 490.529 29.376C490.454 29.536 490.321 29.68 490.129 29.808C489.947 29.9253 489.702 29.984 489.393 29.984C489.094 29.984 488.849 29.9253 488.657 29.808C488.475 29.68 488.342 29.536 488.257 29.376C488.182 29.2053 488.145 29.04 488.145 28.88H486.833ZM499.685 32.64V40H501.381V32.64H499.685ZM504.085 32.64L500.917 35.68L504.421 40H506.533L503.029 35.68L506.213 32.64H504.085ZM506.876 36.32C506.876 37.0667 507.047 37.7333 507.388 38.32C507.74 38.896 508.215 39.3493 508.812 39.68C509.42 40 510.098 40.16 510.844 40.16C511.602 40.16 512.279 40 512.876 39.68C513.474 39.3493 513.943 38.896 514.284 38.32C514.636 37.7333 514.812 37.0667 514.812 36.32C514.812 35.5627 514.636 34.896 514.284 34.32C513.943 33.744 513.474 33.296 512.876 32.976C512.279 32.6453 511.602 32.48 510.844 32.48C510.098 32.48 509.42 32.6453 508.812 32.976C508.215 33.296 507.74 33.744 507.388 34.32C507.047 34.896 506.876 35.5627 506.876 36.32ZM508.652 36.32C508.652 35.8613 508.748 35.456 508.94 35.104C509.132 34.752 509.394 34.48 509.724 34.288C510.055 34.096 510.428 34 510.844 34C511.26 34 511.634 34.096 511.964 34.288C512.295 34.48 512.556 34.752 512.748 35.104C512.94 35.456 513.036 35.8613 513.036 36.32C513.036 36.7787 512.94 37.184 512.748 37.536C512.556 37.8773 512.295 38.1493 511.964 38.352C511.634 38.544 511.26 38.64 510.844 38.64C510.428 38.64 510.055 38.544 509.724 38.352C509.394 38.1493 509.132 37.8773 508.94 37.536C508.748 37.184 508.652 36.7787 508.652 36.32ZM519.476 31.04V41.6H521.156V31.04H519.476ZM515.908 36.32C515.908 37.0667 516.084 37.7333 516.436 38.32C516.798 38.896 517.31 39.3493 517.972 39.68C518.633 40 519.412 40.16 520.308 40.16C521.214 40.16 521.998 40 522.66 39.68C523.321 39.3493 523.828 38.896 524.18 38.32C524.542 37.7333 524.724 37.0667 524.724 36.32C524.724 35.5627 524.542 34.896 524.18 34.32C523.828 33.744 523.321 33.296 522.66 32.976C521.998 32.6453 521.214 32.48 520.308 32.48C519.412 32.48 518.633 32.6453 517.972 32.976C517.31 33.296 516.798 33.744 516.436 34.32C516.084 34.896 515.908 35.5627 515.908 36.32ZM517.556 36.32C517.556 35.8613 517.662 35.456 517.876 35.104C518.089 34.752 518.398 34.48 518.804 34.288C519.209 34.096 519.71 34 520.308 34C520.916 34 521.422 34.096 521.828 34.288C522.233 34.48 522.537 34.752 522.74 35.104C522.953 35.456 523.06 35.8613 523.06 36.32C523.06 36.7787 522.953 37.184 522.74 37.536C522.537 37.8773 522.233 38.1493 521.828 38.352C521.422 38.544 520.916 38.64 520.308 38.64C519.71 38.64 519.209 38.544 518.804 38.352C518.398 38.1493 518.089 37.8773 517.876 37.536C517.662 37.184 517.556 36.7787 517.556 36.32ZM526.854 36.72H533.318C533.328 36.624 533.334 36.5387 533.334 36.464C533.334 36.3787 533.334 36.304 533.334 36.24C533.334 35.4613 533.184 34.7947 532.886 34.24C532.598 33.6747 532.176 33.2427 531.622 32.944C531.078 32.6347 530.422 32.48 529.654 32.48C528.96 32.48 528.347 32.608 527.814 32.864C527.28 33.12 526.848 33.4773 526.518 33.936C526.198 34.3947 525.984 34.928 525.878 35.536C525.856 35.664 525.84 35.792 525.83 35.92C525.819 36.048 525.814 36.1813 525.814 36.32C525.814 37.056 525.968 37.7173 526.278 38.304C526.587 38.88 527.024 39.3333 527.59 39.664C528.166 39.9947 528.827 40.16 529.574 40.16C530.246 40.16 530.806 40.08 531.254 39.92C531.712 39.7493 532.102 39.5147 532.422 39.216C532.742 38.9173 533.024 38.5653 533.27 38.16L531.766 37.568C531.627 37.8027 531.456 38.0107 531.254 38.192C531.051 38.3627 530.816 38.496 530.55 38.592C530.294 38.688 529.995 38.736 529.654 38.736C529.248 38.736 528.886 38.6507 528.566 38.48C528.256 38.2987 528.011 38.0267 527.83 37.664C527.659 37.3013 527.574 36.8533 527.574 36.32L527.606 35.872C527.606 35.4453 527.691 35.0773 527.862 34.768C528.043 34.448 528.288 34.208 528.598 34.048C528.907 33.8773 529.254 33.792 529.638 33.792C530.011 33.792 530.326 33.8667 530.582 34.016C530.838 34.1547 531.035 34.3573 531.174 34.624C531.323 34.88 531.419 35.1787 531.462 35.52H526.854V36.72Z" fill="white"/>
<line x1="369.982" y1="8.5" x2="389.982" y2="8.5" stroke="white"/>
<path d="M592.572 7.544V17H594.492V5.8H585.244V17H587.164V7.544H592.572ZM598.56 20.52V9.64H596.816V20.52H598.56ZM604.656 13.32C604.656 12.488 604.491 11.7893 604.16 11.224C603.83 10.648 603.392 10.2053 602.848 9.896C602.304 9.58667 601.712 9.432 601.072 9.432C600.454 9.432 599.91 9.592 599.44 9.912C598.982 10.232 598.624 10.68 598.368 11.256C598.112 11.832 597.984 12.52 597.984 13.32C597.984 14.1093 598.112 14.7973 598.368 15.384C598.624 15.96 598.982 16.408 599.44 16.728C599.91 17.0373 600.454 17.192 601.072 17.192C601.712 17.192 602.304 17.0427 602.848 16.744C603.392 16.4347 603.83 15.992 604.16 15.416C604.491 14.8293 604.656 14.1307 604.656 13.32ZM602.864 13.32C602.864 13.8107 602.763 14.2267 602.56 14.568C602.358 14.9093 602.091 15.1707 601.76 15.352C601.43 15.5333 601.062 15.624 600.656 15.624C600.315 15.624 599.984 15.5387 599.664 15.368C599.344 15.1867 599.078 14.9253 598.864 14.584C598.662 14.2427 598.56 13.8213 598.56 13.32C598.56 12.8187 598.662 12.3973 598.864 12.056C599.078 11.7147 599.344 11.4587 599.664 11.288C599.984 11.1067 600.315 11.016 600.656 11.016C601.062 11.016 601.43 11.1067 601.76 11.288C602.091 11.4587 602.358 11.72 602.56 12.072C602.763 12.4133 602.864 12.8293 602.864 13.32ZM612.974 11.24L613.054 9.08L606.446 15.4L606.366 17.56L612.974 11.24ZM608.062 9.64H606.366V17.56L608.062 15.592V9.64ZM613.054 9.08L611.358 11.032V17H613.054V9.08ZM619.573 9.64L617.973 11.944L616.373 9.64H614.389L617.045 13.208L614.229 17H616.213L617.973 14.472L619.733 17H621.669L618.869 13.208L621.509 9.64H619.573ZM621.977 13.32C621.977 14.0667 622.147 14.7333 622.489 15.32C622.841 15.896 623.315 16.3493 623.913 16.68C624.521 17 625.198 17.16 625.945 17.16C626.702 17.16 627.379 17 627.977 16.68C628.574 16.3493 629.043 15.896 629.385 15.32C629.737 14.7333 629.913 14.0667 629.913 13.32C629.913 12.5627 629.737 11.896 629.385 11.32C629.043 10.744 628.574 10.296 627.977 9.976C627.379 9.64533 626.702 9.48 625.945 9.48C625.198 9.48 624.521 9.64533 623.913 9.976C623.315 10.296 622.841 10.744 622.489 11.32C622.147 11.896 621.977 12.5627 621.977 13.32ZM623.753 13.32C623.753 12.8613 623.849 12.456 624.041 12.104C624.233 11.752 624.494 11.48 624.825 11.288C625.155 11.096 625.529 11 625.945 11C626.361 11 626.734 11.096 627.065 11.288C627.395 11.48 627.657 11.752 627.849 12.104C628.041 12.456 628.137 12.8613 628.137 13.32C628.137 13.7787 628.041 14.184 627.849 14.536C627.657 14.8773 627.395 15.1493 627.065 15.352C626.734 15.544 626.361 15.64 625.945 15.64C625.529 15.64 625.155 15.544 624.825 15.352C624.494 15.1493 624.233 14.8773 624.041 14.536C623.849 14.184 623.753 13.7787 623.753 13.32ZM635.027 12.12L637.027 16.52L638.835 16.312L635.027 9.08L631.235 16.312L633.027 16.52L635.027 12.12ZM638.067 17V18.44H639.747V15.512H630.307V18.44H632.067V17H638.067ZM648.24 11.24L648.32 9.08L641.712 15.4L641.632 17.56L648.24 11.24ZM643.328 9.64H641.632V17.56L643.328 15.592V9.64ZM648.32 9.08L646.624 11.032V17H648.32V9.08ZM662.068 11.24L662.148 9.08L655.54 15.4L655.46 17.56L662.068 11.24ZM657.156 9.64H655.46V17.56L657.156 15.592V9.64ZM662.148 9.08L660.452 11.032V17H662.148V9.08ZM591.58 32.64H589.724L587.42 38.416L588.236 38.464L585.884 32.64H583.9L586.876 39.136L584.94 43.52H586.78L591.58 32.64ZM596.134 34C596.55 34 596.924 34.096 597.254 34.288C597.585 34.48 597.846 34.752 598.038 35.104C598.23 35.456 598.326 35.8613 598.326 36.32C598.326 36.7787 598.23 37.184 598.038 37.536C597.846 37.8773 597.585 38.1493 597.254 38.352C596.924 38.544 596.55 38.64 596.134 38.64C595.718 38.64 595.345 38.544 595.014 38.352C594.684 38.1493 594.417 37.8773 594.214 37.536C594.022 37.184 593.926 36.7787 593.926 36.32L592.086 35.36C592.086 36.416 592.262 37.3013 592.614 38.016C592.966 38.7307 593.446 39.2693 594.054 39.632C594.673 39.984 595.366 40.16 596.134 40.16C596.913 40.16 597.596 39.9947 598.182 39.664C598.78 39.3333 599.249 38.88 599.59 38.304C599.932 37.7173 600.102 37.056 600.102 36.32C600.102 35.5733 599.932 34.912 599.59 34.336C599.26 33.76 598.801 33.3067 598.214 32.976C597.638 32.6453 596.972 32.48 596.214 32.48L596.134 34ZM593.158 36.32H593.926C593.926 35.9467 593.99 35.616 594.118 35.328C594.257 35.04 594.433 34.8 594.646 34.608C594.86 34.4053 595.1 34.256 595.366 34.16C595.633 34.0533 595.889 34 596.134 34L596.214 32.48C595.756 32.48 595.34 32.5707 594.966 32.752C594.593 32.9227 594.268 33.1733 593.99 33.504C593.724 33.8347 593.516 34.24 593.366 34.72C593.228 35.1893 593.158 35.7227 593.158 36.32ZM592.086 35.36L593.766 36.24L593.606 34.56C593.606 34.0267 593.676 33.5093 593.814 33.008C593.964 32.496 594.22 32.0373 594.582 31.632C594.945 31.216 595.457 30.8907 596.118 30.656C596.705 30.4533 597.228 30.2027 597.686 29.904C598.156 29.5947 598.534 29.2373 598.822 28.832C599.11 28.4267 599.281 27.9893 599.334 27.52H597.654C597.58 27.904 597.356 28.256 596.982 28.576C596.609 28.896 596.06 29.1893 595.334 29.456C594.492 29.776 593.83 30.208 593.35 30.752C592.881 31.2853 592.55 31.936 592.358 32.704C592.177 33.472 592.086 34.3573 592.086 35.36ZM602.251 36.72H608.715C608.726 36.624 608.731 36.5387 608.731 36.464C608.731 36.3787 608.731 36.304 608.731 36.24C608.731 35.4613 608.582 34.7947 608.283 34.24C607.995 33.6747 607.574 33.2427 607.019 32.944C606.475 32.6347 605.819 32.48 605.051 32.48C604.358 32.48 603.744 32.608 603.211 32.864C602.678 33.12 602.246 33.4773 601.915 33.936C601.595 34.3947 601.382 34.928 601.275 35.536C601.254 35.664 601.238 35.792 601.227 35.92C601.216 36.048 601.211 36.1813 601.211 36.32C601.211 37.056 601.366 37.7173 601.675 38.304C601.984 38.88 602.422 39.3333 602.987 39.664C603.563 39.9947 604.224 40.16 604.971 40.16C605.643 40.16 606.203 40.08 606.651 39.92C607.11 39.7493 607.499 39.5147 607.819 39.216C608.139 38.9173 608.422 38.5653 608.667 38.16L607.163 37.568C607.024 37.8027 606.854 38.0107 606.651 38.192C606.448 38.3627 606.214 38.496 605.947 38.592C605.691 38.688 605.392 38.736 605.051 38.736C604.646 38.736 604.283 38.6507 603.963 38.48C603.654 38.2987 603.408 38.0267 603.227 37.664C603.056 37.3013 602.971 36.8533 602.971 36.32L603.003 35.872C603.003 35.4453 603.088 35.0773 603.259 34.768C603.44 34.448 603.686 34.208 603.995 34.048C604.304 33.8773 604.651 33.792 605.035 33.792C605.408 33.792 605.723 33.8667 605.979 34.016C606.235 34.1547 606.432 34.3573 606.571 34.624C606.72 34.88 606.816 35.1787 606.859 35.52H602.251V36.72ZM613.855 35.12L615.855 39.52L617.663 39.312L613.855 32.08L610.063 39.312L611.855 39.52L613.855 35.12ZM616.895 40V41.44H618.575V38.512H609.135V41.44H610.895V40H616.895ZM627.068 34.24L627.148 32.08L620.54 38.4L620.46 40.56L627.068 34.24ZM622.156 32.64H620.46V40.56L622.156 38.592V32.64ZM627.148 32.08L625.452 34.032V40H627.148V32.08ZM630.579 36.32C630.579 35.8613 630.681 35.456 630.883 35.104C631.086 34.752 631.358 34.4747 631.699 34.272C632.051 34.0693 632.441 33.968 632.867 33.968C633.209 33.968 633.539 34.0213 633.859 34.128C634.179 34.2347 634.462 34.384 634.707 34.576C634.963 34.7573 635.15 34.9707 635.267 35.216V33.296C635.011 33.0507 634.665 32.8533 634.227 32.704C633.79 32.5547 633.31 32.48 632.787 32.48C632.041 32.48 631.363 32.6453 630.755 32.976C630.158 33.296 629.683 33.744 629.331 34.32C628.979 34.896 628.803 35.5627 628.803 36.32C628.803 37.0667 628.979 37.7333 629.331 38.32C629.683 38.896 630.158 39.3493 630.755 39.68C631.363 40 632.041 40.16 632.787 40.16C633.31 40.16 633.79 40.0853 634.227 39.936C634.665 39.7867 635.011 39.584 635.267 39.328V37.424C635.15 37.6587 634.969 37.872 634.723 38.064C634.478 38.2453 634.195 38.3947 633.875 38.512C633.566 38.6187 633.23 38.672 632.867 38.672C632.441 38.672 632.051 38.5707 631.699 38.368C631.358 38.1653 631.086 37.888 630.883 37.536C630.681 37.184 630.579 36.7787 630.579 36.32ZM637.209 32.64V40H638.953V32.64H637.209ZM638.425 36.608H640.537C640.932 36.608 641.225 36.6933 641.417 36.864C641.62 37.0347 641.721 37.28 641.721 37.6C641.721 37.8027 641.673 37.9787 641.577 38.128C641.492 38.2773 641.359 38.3893 641.177 38.464C641.007 38.5387 640.793 38.576 640.537 38.576H638.425V40H640.713C641.225 40 641.684 39.9093 642.089 39.728C642.495 39.5467 642.815 39.2747 643.049 38.912C643.284 38.5493 643.401 38.1067 643.401 37.584C643.401 36.7947 643.14 36.2187 642.617 35.856C642.105 35.4827 641.471 35.296 640.713 35.296H638.425V36.608ZM651.251 36.32C651.251 35.8613 651.352 35.456 651.555 35.104C651.758 34.752 652.03 34.4747 652.371 34.272C652.723 34.0693 653.112 33.968 653.539 33.968C653.88 33.968 654.211 34.0213 654.531 34.128C654.851 34.2347 655.134 34.384 655.379 34.576C655.635 34.7573 655.822 34.9707 655.939 35.216V33.296C655.683 33.0507 655.336 32.8533 654.899 32.704C654.462 32.5547 653.982 32.48 653.459 32.48C652.712 32.48 652.035 32.6453 651.427 32.976C650.83 33.296 650.355 33.744 650.003 34.32C649.651 34.896 649.475 35.5627 649.475 36.32C649.475 37.0667 649.651 37.7333 650.003 38.32C650.355 38.896 650.83 39.3493 651.427 39.68C652.035 40 652.712 40.16 653.459 40.16C653.982 40.16 654.462 40.0853 654.899 39.936C655.336 39.7867 655.683 39.584 655.939 39.328V37.424C655.822 37.6587 655.64 37.872 655.395 38.064C655.15 38.2453 654.867 38.3947 654.547 38.512C654.238 38.6187 653.902 38.672 653.539 38.672C653.112 38.672 652.723 38.5707 652.371 38.368C652.03 38.1653 651.758 37.888 651.555 37.536C651.352 37.184 651.251 36.7787 651.251 36.32ZM658.937 37.824C658.937 37.568 659.001 37.3493 659.129 37.168C659.257 36.976 659.444 36.832 659.689 36.736C659.934 36.6293 660.238 36.576 660.601 36.576C661.049 36.576 661.444 36.6347 661.785 36.752C662.126 36.8587 662.462 37.0347 662.793 37.28V36.368C662.708 36.2613 662.553 36.1387 662.329 36C662.105 35.8613 661.822 35.7387 661.481 35.632C661.15 35.5253 660.772 35.472 660.345 35.472C659.705 35.472 659.145 35.568 658.665 35.76C658.196 35.952 657.833 36.2293 657.577 36.592C657.321 36.9547 657.193 37.3867 657.193 37.888C657.193 38.3893 657.305 38.8107 657.529 39.152C657.764 39.4827 658.073 39.7333 658.457 39.904C658.852 40.0747 659.289 40.16 659.769 40.16C660.281 40.16 660.745 40.0747 661.161 39.904C661.577 39.7227 661.908 39.4667 662.153 39.136C662.398 38.7947 662.521 38.3893 662.521 37.92L662.265 37.072C662.265 37.5093 662.18 37.856 662.009 38.112C661.838 38.368 661.604 38.5547 661.305 38.672C661.006 38.7893 660.67 38.848 660.297 38.848C660.052 38.848 659.822 38.8107 659.609 38.736C659.406 38.6507 659.241 38.5333 659.113 38.384C658.996 38.2347 658.937 38.048 658.937 37.824ZM658.569 34.576C658.686 34.5013 658.852 34.4107 659.065 34.304C659.289 34.1867 659.545 34.0853 659.833 34C660.132 33.9147 660.457 33.872 660.809 33.872C661.214 33.872 661.556 33.968 661.833 34.16C662.121 34.3413 662.265 34.6027 662.265 34.944V40H663.961V34.752C663.961 34.2613 663.828 33.8453 663.561 33.504C663.305 33.1627 662.948 32.9067 662.489 32.736C662.03 32.5547 661.497 32.464 660.889 32.464C660.228 32.464 659.641 32.56 659.129 32.752C658.617 32.944 658.196 33.1413 657.865 33.344L658.569 34.576ZM672.998 40H674.838L672.806 32.08L671.878 34.48L672.998 40ZM669.398 38.496L669.878 40.496L672.966 34.912L672.806 32.08L669.398 38.496ZM669.878 40.496L670.358 38.496L667.014 32.08L666.854 34.912L669.878 40.496ZM664.966 40H666.806L667.926 34.48L667.014 32.08L664.966 40ZM677.109 37.824C677.109 37.568 677.173 37.3493 677.301 37.168C677.429 36.976 677.616 36.832 677.861 36.736C678.106 36.6293 678.41 36.576 678.773 36.576C679.221 36.576 679.616 36.6347 679.957 36.752C680.298 36.8587 680.634 37.0347 680.965 37.28V36.368C680.88 36.2613 680.725 36.1387 680.501 36C680.277 35.8613 679.994 35.7387 679.653 35.632C679.322 35.5253 678.944 35.472 678.517 35.472C677.877 35.472 677.317 35.568 676.837 35.76C676.368 35.952 676.005 36.2293 675.749 36.592C675.493 36.9547 675.365 37.3867 675.365 37.888C675.365 38.3893 675.477 38.8107 675.701 39.152C675.936 39.4827 676.245 39.7333 676.629 39.904C677.024 40.0747 677.461 40.16 677.941 40.16C678.453 40.16 678.917 40.0747 679.333 39.904C679.749 39.7227 680.08 39.4667 680.325 39.136C680.57 38.7947 680.693 38.3893 680.693 37.92L680.437 37.072C680.437 37.5093 680.352 37.856 680.181 38.112C680.01 38.368 679.776 38.5547 679.477 38.672C679.178 38.7893 678.842 38.848 678.469 38.848C678.224 38.848 677.994 38.8107 677.781 38.736C677.578 38.6507 677.413 38.5333 677.285 38.384C677.168 38.2347 677.109 38.048 677.109 37.824ZM676.741 34.576C676.858 34.5013 677.024 34.4107 677.237 34.304C677.461 34.1867 677.717 34.0853 678.005 34C678.304 33.9147 678.629 33.872 678.981 33.872C679.386 33.872 679.728 33.968 680.005 34.16C680.293 34.3413 680.437 34.6027 680.437 34.944V40H682.133V34.752C682.133 34.2613 682 33.8453 681.733 33.504C681.477 33.1627 681.12 32.9067 680.661 32.736C680.202 32.5547 679.669 32.464 679.061 32.464C678.4 32.464 677.813 32.56 677.301 32.752C676.789 32.944 676.368 33.1413 676.037 33.344L676.741 34.576Z" fill="white"/>
<line x1="548.973" y1="10.5" x2="568.973" y2="10.5" stroke="white"/>
</svg>
