<svg width="34" height="35" viewBox="0 0 34 35" fill="none" xmlns="http://www.w3.org/2000/svg">
<rect y="0.5" width="34" height="34" rx="17" fill="white"/>
<path fill-rule="evenodd" clip-rule="evenodd" d="M14.0667 15.3219C14.0409 14.9785 14.1083 14.6345 14.2619 14.3261C14.3087 14.2032 14.3737 14.0879 14.4549 13.9843C14.5997 13.7891 14.7932 13.6351 15.0162 13.5374C15.0162 13.5374 15.6789 13.4726 15.7362 13.5613C16.0433 14.0925 16.3003 14.6509 16.5037 15.2294C16.6051 15.6078 16.0725 16.0397 16.0725 16.0397C16.0725 16.0397 15.7351 16.211 16.0725 16.6354C16.324 16.9522 16.7518 17.5041 17.0087 17.7079C17.2801 17.9292 17.5689 18.1285 17.8721 18.3039C18.4996 18.6505 18.6165 18.6136 18.6165 18.6136C18.6165 18.6136 18.7322 18.6607 19.0476 18.2324C19.2163 18.005 19.4005 17.738 19.5758 17.6842C19.7787 17.6223 21.4173 18.5599 21.3522 18.4944C21.4669 18.6096 21.3765 18.9791 21.3765 18.9791C21.3765 18.9791 21.4118 19.3924 20.7877 19.8689C20.3764 20.1833 19.696 20.2581 19.696 20.2581C19.2676 20.2275 18.8466 20.1312 18.4477 19.9724C17.7828 19.7227 17.0804 19.5126 16.1685 18.6856C15.535 18.1125 14.9846 17.4544 14.5332 16.7301C14.0535 15.9061 14.0667 15.3219 14.0667 15.3219ZM17.6439 24.1664C16.3725 24.1682 15.1223 23.8409 14.016 23.2167L10 24.5L11.3199 20.5927C10.487 19.2029 10.139 17.5776 10.3302 15.9701C10.5214 14.3627 11.2411 12.8634 12.377 11.7061C13.513 10.5488 15.0014 9.79845 16.6102 9.57207C18.2189 9.3457 19.8577 9.65601 21.2709 10.4546C22.6842 11.2532 23.7924 12.4953 24.423 13.9871C25.0536 15.4789 25.171 17.1367 24.757 18.702C24.3429 20.2672 23.4207 21.652 22.134 22.6404C20.8474 23.6289 19.2686 24.1654 17.6439 24.1664ZM17.6317 10.7489C16.5018 10.7447 15.3926 11.051 14.426 11.6342C13.4595 12.2174 12.673 13.0548 12.1532 14.0543C11.6334 15.0539 11.4002 16.1769 11.4795 17.2999C11.5587 18.4229 11.9473 19.5024 12.6024 20.4197L12.0168 22.1884L12.019 22.1901L11.8481 22.689L12.8416 22.3951C12.8401 22.3932 12.8382 22.3916 12.8361 22.3902L14.1991 21.9629C14.9971 22.4999 15.9104 22.843 16.8657 22.9644C17.8209 23.0858 18.7915 22.9822 19.6992 22.6619C20.607 22.3417 21.4267 21.8137 22.0924 21.1204C22.7581 20.4271 23.2512 19.5879 23.5321 18.6702C23.813 17.7525 23.8739 16.7819 23.7098 15.8365C23.5458 14.8911 23.1613 13.9972 22.5874 13.2267C22.0135 12.4563 21.2662 11.8307 20.4055 11.4004C19.5448 10.97 18.5947 10.7469 17.6317 10.7489Z" fill="#00C232"/>
<path fill-rule="evenodd" clip-rule="evenodd" d="M14.0667 15.3219C14.0409 14.9785 14.1083 14.6345 14.2619 14.3261C14.3087 14.2032 14.3737 14.0879 14.4549 13.9843C14.5997 13.7891 14.7932 13.6351 15.0162 13.5374C15.0162 13.5374 15.6789 13.4726 15.7362 13.5613C16.0433 14.0925 16.3003 14.6509 16.5037 15.2294C16.6051 15.6078 16.0725 16.0397 16.0725 16.0397C16.0725 16.0397 15.7351 16.211 16.0725 16.6354C16.324 16.9522 16.7518 17.5041 17.0087 17.7079C17.2801 17.9292 17.5689 18.1285 17.8721 18.3039C18.4996 18.6505 18.6165 18.6136 18.6165 18.6136C18.6165 18.6136 18.7322 18.6607 19.0476 18.2324C19.2163 18.005 19.4005 17.738 19.5758 17.6842C19.7787 17.6223 21.4173 18.5599 21.3522 18.4944C21.4669 18.6096 21.3765 18.9791 21.3765 18.9791C21.3765 18.9791 21.4118 19.3924 20.7877 19.8689C20.3764 20.1833 19.696 20.2581 19.696 20.2581C19.2676 20.2275 18.8466 20.1312 18.4477 19.9724C17.7828 19.7227 17.0804 19.5126 16.1685 18.6856C15.535 18.1125 14.9846 17.4544 14.5332 16.7301C14.0535 15.9061 14.0667 15.3219 14.0667 15.3219ZM17.6439 24.1664C16.3725 24.1682 15.1223 23.8409 14.016 23.2167L10 24.5L11.3199 20.5927C10.487 19.2029 10.139 17.5776 10.3302 15.9701C10.5214 14.3627 11.2411 12.8634 12.377 11.7061C13.513 10.5488 15.0014 9.79845 16.6102 9.57207C18.2189 9.3457 19.8577 9.65601 21.2709 10.4546C22.6842 11.2532 23.7924 12.4953 24.423 13.9871C25.0536 15.4789 25.171 17.1367 24.757 18.702C24.3429 20.2672 23.4207 21.652 22.134 22.6404C20.8474 23.6289 19.2686 24.1654 17.6439 24.1664ZM17.6317 10.7489C16.5018 10.7447 15.3926 11.051 14.426 11.6342C13.4595 12.2174 12.673 13.0548 12.1532 14.0543C11.6334 15.0539 11.4002 16.1769 11.4795 17.2999C11.5587 18.4229 11.9473 19.5024 12.6024 20.4197L12.0168 22.1884L12.019 22.1901L11.8481 22.689L12.8416 22.3951C12.8401 22.3932 12.8382 22.3916 12.8361 22.3902L14.1991 21.9629C14.9971 22.4999 15.9104 22.843 16.8657 22.9644C17.8209 23.0858 18.7915 22.9822 19.6992 22.6619C20.607 22.3417 21.4267 21.8137 22.0924 21.1204C22.7581 20.4271 23.2512 19.5879 23.5321 18.6702C23.813 17.7525 23.8739 16.7819 23.7098 15.8365C23.5458 14.8911 23.1613 13.9972 22.5874 13.2267C22.0135 12.4563 21.2662 11.8307 20.4055 11.4004C19.5448 10.97 18.5947 10.7469 17.6317 10.7489Z" fill="white"/>
<path fill-rule="evenodd" clip-rule="evenodd" d="M14.0667 15.3219C14.0409 14.9785 14.1083 14.6345 14.2619 14.3261C14.3087 14.2032 14.3737 14.0879 14.4549 13.9843C14.5997 13.7891 14.7932 13.6351 15.0162 13.5374C15.0162 13.5374 15.6789 13.4726 15.7362 13.5613C16.0433 14.0925 16.3003 14.6509 16.5037 15.2294C16.6051 15.6078 16.0725 16.0397 16.0725 16.0397C16.0725 16.0397 15.7351 16.211 16.0725 16.6354C16.324 16.9522 16.7518 17.5041 17.0087 17.7079C17.2801 17.9292 17.5689 18.1285 17.8721 18.3039C18.4996 18.6505 18.6165 18.6136 18.6165 18.6136C18.6165 18.6136 18.7322 18.6607 19.0476 18.2324C19.2163 18.005 19.4005 17.738 19.5758 17.6842C19.7787 17.6223 21.4173 18.5599 21.3522 18.4944C21.4669 18.6096 21.3765 18.9791 21.3765 18.9791C21.3765 18.9791 21.4118 19.3924 20.7877 19.8689C20.3764 20.1833 19.696 20.2581 19.696 20.2581C19.2676 20.2275 18.8466 20.1312 18.4477 19.9724C17.7828 19.7227 17.0804 19.5126 16.1685 18.6856C15.535 18.1125 14.9846 17.4544 14.5332 16.7301C14.0535 15.9061 14.0667 15.3219 14.0667 15.3219ZM17.6439 24.1664C16.3725 24.1682 15.1223 23.8409 14.016 23.2167L10 24.5L11.3199 20.5927C10.487 19.2029 10.139 17.5776 10.3302 15.9701C10.5214 14.3627 11.2411 12.8634 12.377 11.7061C13.513 10.5488 15.0014 9.79845 16.6102 9.57207C18.2189 9.3457 19.8577 9.65601 21.2709 10.4546C22.6842 11.2532 23.7924 12.4953 24.423 13.9871C25.0536 15.4789 25.171 17.1367 24.757 18.702C24.3429 20.2672 23.4207 21.652 22.134 22.6404C20.8474 23.6289 19.2686 24.1654 17.6439 24.1664ZM17.6317 10.7489C16.5018 10.7447 15.3926 11.051 14.426 11.6342C13.4595 12.2174 12.673 13.0548 12.1532 14.0543C11.6334 15.0539 11.4002 16.1769 11.4795 17.2999C11.5587 18.4229 11.9473 19.5024 12.6024 20.4197L12.0168 22.1884L12.019 22.1901L11.8481 22.689L12.8416 22.3951C12.8401 22.3932 12.8382 22.3916 12.8361 22.3902L14.1991 21.9629C14.9971 22.4999 15.9104 22.843 16.8657 22.9644C17.8209 23.0858 18.7915 22.9822 19.6992 22.6619C20.607 22.3417 21.4267 21.8137 22.0924 21.1204C22.7581 20.4271 23.2512 19.5879 23.5321 18.6702C23.813 17.7525 23.8739 16.7819 23.7098 15.8365C23.5458 14.8911 23.1613 13.9972 22.5874 13.2267C22.0135 12.4563 21.2662 11.8307 20.4055 11.4004C19.5448 10.97 18.5947 10.7469 17.6317 10.7489Z" fill="black"/>
</svg>
