<svg width="34" height="35" viewBox="0 0 34 35" fill="none" xmlns="http://www.w3.org/2000/svg">
<rect y="0.5" width="34" height="34" rx="17" fill="white"/>
<path d="M10.8583 16.726C10.8583 16.726 17.0502 14.0918 19.1976 13.1642C20.0208 12.7932 22.8125 11.6059 22.8125 11.6059C22.8125 11.6059 24.101 11.0865 23.9936 12.348C23.9579 12.8674 23.6715 14.6854 23.3852 16.6518C22.9557 19.4345 22.4904 22.4769 22.4904 22.4769C22.4904 22.4769 22.4188 23.3302 21.8104 23.4786C21.2019 23.627 20.1998 22.9592 20.0208 22.8108C19.8777 22.6995 17.3365 21.0299 16.4059 20.2136C16.1554 19.991 15.8691 19.5458 16.4417 19.0264C17.7302 17.802 19.2692 16.2808 20.1998 15.3162C20.6293 14.8709 21.0588 13.8321 19.2692 15.0935C16.728 16.9115 14.2227 18.6182 14.2227 18.6182C14.2227 18.6182 13.65 18.9893 12.5763 18.6553C11.5025 18.3214 10.2499 17.8762 10.2499 17.8762C10.2499 17.8762 9.39087 17.3197 10.8583 16.726Z" fill="black"/>
</svg>
