<svg width="34" height="35" viewBox="0 0 34 35" fill="none" xmlns="http://www.w3.org/2000/svg">
<rect y="0.5" width="34" height="34" rx="17" fill="#F4AD7B"/>
<path d="M24.9213 15.9905C24.8436 15.9148 24.74 15.8644 24.6364 15.8644H8.37229C8.26869 15.8644 8.1651 15.9148 8.08741 15.9905C8.00971 16.0662 7.98381 16.1924 8.00971 16.2934L9.30462 23.1577C9.51181 24.2177 10.5736 25 11.8168 25H21.166C22.4091 25 23.471 24.2177 23.6781 23.1577L24.9731 16.2934C25.0248 16.1924 24.999 16.0662 24.9213 15.9905ZM22.953 23.0315C22.8235 23.7382 22.0724 24.2681 21.166 24.2681H11.8168C10.9103 24.2681 10.1852 23.7382 10.0298 23.0315L8.81256 16.5962H24.1702L22.953 23.0315Z" fill="#282930"/>
<path d="M11.0139 14.8549C11.4542 14.8549 11.7908 14.5016 11.7908 14.0978C11.7908 13.8959 11.7131 13.7192 11.5837 13.5678L12.257 10.3628C12.3347 10.0095 12.8009 9.73186 13.3447 9.73186H19.638C20.1819 9.73186 20.648 10.0095 20.7257 10.3628L21.425 13.5678C21.2955 13.694 21.2178 13.8959 21.2178 14.0978C21.2178 14.5268 21.5804 14.8549 21.9947 14.8549C22.435 14.8549 22.7717 14.5016 22.7717 14.0978C22.7717 13.7192 22.4868 13.4164 22.1242 13.3407L21.4509 10.2114C21.2955 9.50473 20.5444 9 19.638 9H13.3447C12.4383 9 11.6873 9.50473 11.5319 10.2114L10.8585 13.3407C10.4959 13.4164 10.2111 13.7192 10.2111 14.0978C10.2369 14.5268 10.5995 14.8549 11.0139 14.8549Z" fill="#282930"/>
<path d="M24.9213 15.9905C24.8436 15.9148 24.74 15.8644 24.6364 15.8644H8.37229C8.26869 15.8644 8.1651 15.9148 8.08741 15.9905C8.00971 16.0662 7.98381 16.1924 8.00971 16.2934L9.30462 23.1577C9.51181 24.2177 10.5736 25 11.8168 25H21.166C22.4091 25 23.471 24.2177 23.6781 23.1577L24.9731 16.2934C25.0248 16.1924 24.999 16.0662 24.9213 15.9905ZM22.953 23.0315C22.8235 23.7382 22.0724 24.2681 21.166 24.2681H11.8168C10.9103 24.2681 10.1852 23.7382 10.0298 23.0315L8.81256 16.5962H24.1702L22.953 23.0315Z" stroke="black" stroke-width="0.5"/>
<path d="M11.0139 14.8549C11.4542 14.8549 11.7908 14.5016 11.7908 14.0978C11.7908 13.8959 11.7131 13.7192 11.5837 13.5678L12.257 10.3628C12.3347 10.0095 12.8009 9.73186 13.3447 9.73186H19.638C20.1819 9.73186 20.648 10.0095 20.7257 10.3628L21.425 13.5678C21.2955 13.694 21.2178 13.8959 21.2178 14.0978C21.2178 14.5268 21.5804 14.8549 21.9947 14.8549C22.435 14.8549 22.7717 14.5016 22.7717 14.0978C22.7717 13.7192 22.4868 13.4164 22.1242 13.3407L21.4509 10.2114C21.2955 9.50473 20.5444 9 19.638 9H13.3447C12.4383 9 11.6873 9.50473 11.5319 10.2114L10.8585 13.3407C10.4959 13.4164 10.2111 13.7192 10.2111 14.0978C10.2369 14.5268 10.5995 14.8549 11.0139 14.8549Z" stroke="black" stroke-width="0.5"/>
</svg>
